<svg width="844" height="474" viewBox="0 0 844 474" fill="none" xmlns="http://www.w3.org/2000/svg">
<g clip-path="url(#clip0_620_5945)">
<rect width="844" height="474" fill="url(#paint0_linear_620_5945)"/>
<g filter="url(#filter0_ddddddf_620_5945)">
<g opacity="0.49">
<path d="M301.024 492.253L300.966 492.11L204.979 504.92C202.964 499.891 157.71 380.672 332.337 289.927C404.401 252.476 471.923 233.285 526.179 217.864C598.217 197.388 630.776 187.072 647.538 157.103C659.146 136.353 651.955 116.22 642.853 90.7295C625.095 41.0002 602.995 -20.8893 708.871 -113.86L791.194 -82.6158C707.718 -9.31584 723.079 33.7021 739.342 79.2461C749.932 108.897 760.881 139.558 741.291 174.58C711 228.727 642.363 248.234 569.695 268.89C518.355 283.482 460.167 300.02 398.251 332.197C343.763 360.509 310.836 395.68 300.292 436.763C292.169 468.41 300.933 492.019 301.024 492.253Z" fill="#14B8A6"/>
<path d="M293.859 493.167L212.128 503.966C211.621 502.698 199.809 472.462 209.43 431.745C222.16 377.865 266.349 329.913 337.246 293.074C408.555 256.017 475.571 236.969 529.419 221.664C601.465 201.187 636.879 189.943 654.52 158.405C666.721 136.591 659.36 115.975 650.039 89.8743C632.555 40.9097 610.793 -20.0272 715.003 -111.533L785.063 -84.9422C699.919 -10.1783 716.308 35.7176 732.158 80.1018C742.554 109.215 753.303 139.319 734.309 173.279C704.976 225.717 637.691 244.842 566.454 265.09C514.687 279.803 456.014 296.48 393.343 329.049C337.428 358.107 303.652 394.25 292.95 436.477C284.75 468.83 293.767 492.927 293.859 493.167Z" fill="#1F2937"/>
<path d="M249.861 478.837C249.515 479.036 249.048 479.168 248.522 479.188C247.366 479.233 246.367 478.729 246.288 478.062C245.813 474.026 245.542 469.889 245.482 465.763C245.469 465.096 246.401 464.549 247.561 464.543C248.718 464.537 249.665 465.074 249.674 465.743C249.734 469.82 250.002 473.911 250.47 477.9C250.513 478.262 250.274 478.598 249.861 478.837ZM249.722 451.934C249.314 452.17 248.737 452.308 248.113 452.286C246.959 452.246 246.078 451.672 246.147 451.005C246.572 446.928 247.207 442.805 248.032 438.754C248.168 438.089 249.211 437.615 250.36 437.693C251.508 437.771 252.33 438.373 252.196 439.035C251.381 443.042 250.753 447.118 250.332 451.151C250.299 451.459 250.072 451.732 249.722 451.934ZM654.785 206.329C651.684 208.118 648.36 209.898 644.903 211.617C644.026 212.054 642.703 211.997 641.947 211.49C641.192 210.984 641.258 210.235 642.167 209.784C645.545 208.102 648.794 206.364 651.82 204.617C651.828 204.613 651.836 204.608 651.845 204.603C653.667 203.551 655.459 202.467 657.17 201.383C657.992 200.881 659.275 200.853 660.131 201.302C660.987 201.753 661.049 202.518 660.27 203.012C658.515 204.125 656.677 205.236 654.809 206.314C654.801 206.319 654.792 206.324 654.785 206.329ZM675.751 191.469C675.065 191.865 673.969 191.944 673.124 191.625C672.155 191.259 671.881 190.51 672.516 189.95C676.257 186.645 679.712 183.11 682.782 179.444C683.288 178.84 684.539 178.59 685.582 178.881C686.624 179.172 687.061 179.895 686.557 180.497C683.408 184.257 679.865 187.882 676.025 191.274C675.944 191.346 675.852 191.41 675.751 191.469ZM624.811 220.442C624.718 220.496 624.617 220.544 624.505 220.588C618.94 222.77 613.041 224.912 606.471 227.137C605.47 227.475 604.187 227.282 603.601 226.705C603.014 226.129 603.36 225.383 604.348 225.049C610.84 222.852 616.661 220.738 622.148 218.586C623.107 218.21 624.41 218.354 625.061 218.907C625.636 219.396 625.509 220.039 624.811 220.442ZM255.444 425.242C254.97 425.515 254.278 425.654 253.57 425.576C252.433 425.453 251.686 424.819 251.9 424.163C253.214 420.143 254.75 416.101 256.466 412.148C256.744 411.503 257.885 411.107 259.008 411.269C260.131 411.431 260.813 412.089 260.532 412.738C258.838 416.643 257.319 420.638 256.02 424.612C255.939 424.86 255.732 425.076 255.444 425.242ZM584.637 234.025C584.491 234.11 584.319 234.183 584.125 234.242C578.656 235.894 572.646 237.659 565.214 239.796C564.179 240.094 562.919 239.851 562.404 239.253C561.888 238.654 562.313 237.929 563.344 237.63C570.752 235.499 576.738 233.742 582.183 232.097C583.209 231.788 584.475 232.017 585.011 232.609C585.447 233.089 585.268 233.661 584.637 234.025ZM695.604 167.217C695.061 167.53 694.24 167.66 693.462 167.512C692.363 167.302 691.766 166.618 692.129 165.983L692.419 165.471C694.46 161.821 696.142 158.077 697.419 154.342C697.64 153.686 698.744 153.26 699.882 153.389C701.016 153.519 701.756 154.155 701.532 154.811C700.223 158.638 698.501 162.473 696.41 166.212L696.111 166.741C696.005 166.927 695.828 167.088 695.604 167.217ZM542.974 246.065C542.817 246.157 542.63 246.234 542.419 246.294C536.228 248.057 529.91 249.864 523.476 251.737C522.442 252.038 521.181 251.798 520.661 251.201C520.139 250.604 520.55 249.879 521.59 249.575C528.035 247.699 534.362 245.89 540.564 244.124C541.603 243.828 542.859 244.075 543.372 244.674C543.779 245.151 543.592 245.709 542.974 246.065ZM267.048 399.203C266.506 399.516 265.686 399.646 264.909 399.498C263.809 399.289 263.212 398.605 263.574 397.97C265.788 394.084 268.236 390.195 270.849 386.41C271.277 385.79 272.496 385.486 273.573 385.733C274.648 385.981 275.172 386.685 274.744 387.305C272.163 391.045 269.745 394.888 267.554 398.727C267.45 398.913 267.272 399.074 267.048 399.203ZM501.439 258.244C501.296 258.327 501.129 258.399 500.939 258.457C494.436 260.452 488.373 262.364 482.401 264.305C481.392 264.633 480.113 264.426 479.546 263.843C478.978 263.262 479.347 262.517 480.345 262.196C486.347 260.246 492.44 258.323 498.973 256.319C499.994 256.006 501.265 256.23 501.807 256.82C502.249 257.302 502.074 257.877 501.439 258.244ZM704.048 140.908C703.643 141.142 703.074 141.28 702.457 141.261C701.302 141.226 700.412 140.658 700.474 139.99C700.824 136.076 700.824 132.123 700.467 127.908C700.412 127.239 701.302 126.672 702.459 126.64C703.616 126.607 704.598 127.122 704.656 127.789C705.018 132.088 705.02 136.12 704.659 140.116C704.631 140.426 704.403 140.704 704.048 140.908ZM284.56 374.298C283.945 374.653 282.984 374.761 282.159 374.529C281.118 374.236 280.686 373.512 281.194 372.911C284.292 369.243 287.632 365.583 291.121 362.03C291.694 361.455 292.973 361.244 293.979 361.574C294.987 361.903 295.34 362.642 294.769 363.223C291.321 366.733 288.022 370.349 284.96 373.972C284.856 374.096 284.719 374.206 284.56 374.298ZM460.925 271.516C460.809 271.583 460.678 271.644 460.532 271.695C454.503 273.815 448.497 276.003 442.684 278.197C441.715 278.562 440.416 278.405 439.782 277.846C439.148 277.286 439.429 276.537 440.39 276.171C446.24 273.963 452.283 271.761 458.352 269.627C459.34 269.28 460.63 269.46 461.232 270.031C461.744 270.518 461.592 271.131 460.925 271.516ZM422.036 286.308C421.955 286.355 421.866 286.399 421.77 286.439C416.053 288.791 410.345 291.226 404.798 293.678C403.88 294.083 402.563 293.983 401.86 293.452C401.156 292.922 401.339 292.162 402.25 291.756C407.833 289.288 413.582 286.836 419.335 284.468C420.278 284.08 421.586 284.207 422.259 284.751C422.861 285.239 422.746 285.898 422.036 286.308ZM307.777 351.002C307.084 351.402 305.976 351.478 305.129 351.151C304.168 350.779 303.911 350.027 304.556 349.472C308.478 346.092 312.646 342.727 316.945 339.47C317.647 338.936 318.961 338.838 319.883 339.241C320.803 339.647 320.982 340.405 320.28 340.937C316.031 344.156 311.913 347.48 308.037 350.82C307.961 350.886 307.873 350.947 307.777 351.002ZM385.159 302.726C385.114 302.752 385.067 302.776 385.017 302.801C379.664 305.374 374.287 308.049 369.032 310.753C368.169 311.197 366.843 311.154 366.073 310.654C365.302 310.156 365.386 309.385 366.243 308.945C371.532 306.225 376.946 303.531 382.334 300.941C383.223 300.513 384.545 300.583 385.287 301.096C385.985 301.581 385.917 302.288 385.159 302.726ZM336.205 329.722C335.429 330.17 334.173 330.199 333.338 329.774C332.471 329.332 332.386 328.567 333.152 328.066C337.805 325.019 342.696 321.997 347.687 319.084C347.69 319.082 347.693 319.081 347.695 319.079C348.511 318.608 349.832 318.606 350.652 319.074C351.475 319.544 351.482 320.311 350.668 320.785C345.732 323.666 340.897 326.654 336.296 329.667C336.266 329.686 336.237 329.704 336.205 329.722ZM701.593 114.118C701.281 114.298 700.87 114.423 700.399 114.46C699.253 114.552 698.195 114.09 698.035 113.428C697.156 109.768 696.042 105.841 694.63 101.421C694.42 100.766 695.171 100.134 696.31 100.012C697.447 99.8908 698.542 100.325 698.751 100.982C700.176 105.437 701.3 109.4 702.188 113.095C702.282 113.486 702.041 113.859 701.593 114.118ZM693.23 87.6713C692.95 87.8327 692.588 87.9509 692.172 87.9999C691.037 88.1353 689.929 87.7133 689.697 87.0589L689.046 85.2361C687.849 81.8843 686.64 78.4993 685.463 75.0718C685.238 74.4172 685.976 73.7805 687.111 73.6501C688.246 73.5201 689.351 73.9454 689.575 74.6015C690.751 78.0224 691.957 81.4013 693.151 84.7481L693.801 86.5709C693.949 86.9853 693.712 87.393 693.23 87.6713ZM684.417 61.2654C684.117 61.4383 683.726 61.56 683.276 61.6029C682.133 61.7115 681.055 61.2649 680.868 60.6051C679.65 56.3258 678.667 52.3521 677.862 48.4564C677.726 47.7934 678.545 47.1895 679.696 47.1119C680.846 47.0322 681.888 47.5067 682.026 48.1697C682.822 52.0303 683.797 55.9688 685.005 60.2122C685.118 60.6124 684.879 60.9988 684.417 61.2654ZM679.258 34.5653C678.903 34.7701 678.42 34.9025 677.881 34.9185C676.725 34.9515 675.74 34.438 675.683 33.77C675.322 29.6345 675.193 25.5005 675.296 21.4838C675.313 20.8165 676.264 20.2827 677.424 20.2923C678.581 20.3019 679.505 20.8521 679.488 21.5205C679.385 25.4838 679.515 29.5645 679.868 33.6495C679.899 34.005 679.661 34.3323 679.258 34.5653ZM680.299 7.73458C679.87 7.982 679.26 8.12102 678.61 8.08391C677.458 8.01888 676.615 7.42668 676.728 6.76152C677.416 2.71669 678.363 -1.38103 679.54 -5.41761C679.736 -6.07693 680.818 -6.52187 681.956 -6.40948C683.098 -6.29879 683.867 -5.67416 683.676 -5.01556C682.513 -1.03415 681.58 3.0081 680.901 6.99814C680.851 7.28841 680.629 7.54407 680.299 7.73458ZM688.313 -18.6915C687.808 -18.3998 687.06 -18.2654 686.318 -18.3728C685.196 -18.5361 684.514 -19.1937 684.798 -19.8421C686.497 -23.7378 688.461 -27.7098 690.635 -31.6474C690.982 -32.2858 692.167 -32.6363 693.268 -32.4332C694.37 -32.2299 694.979 -31.5492 694.629 -30.9126C692.481 -27.0219 690.542 -23.0992 688.862 -19.2507C688.767 -19.031 688.572 -18.841 688.313 -18.6915ZM702.647 -44.2141C702.074 -43.8832 701.194 -43.7612 700.393 -43.9442C699.316 -44.1899 698.788 -44.8926 699.214 -45.5144C701.765 -49.2455 704.563 -53.0438 707.527 -56.8039C708.003 -57.41 709.247 -57.6809 710.303 -57.4038C711.356 -57.1267 711.822 -56.4098 711.342 -55.801C708.409 -52.0784 705.639 -48.3176 703.112 -44.6243C703.004 -44.4661 702.842 -44.3269 702.647 -44.2141ZM722.056 -68.6066C721.425 -68.2422 720.435 -68.1387 719.603 -68.3898C718.577 -68.6997 718.179 -69.4306 718.714 -70.0226C721.921 -73.5693 725.358 -77.1872 728.928 -80.7766C729.5 -81.3505 730.785 -81.5561 731.788 -81.2227C732.793 -80.8902 733.14 -80.1501 732.563 -79.5707C729.021 -76.0102 725.613 -72.4208 722.431 -68.9028C722.33 -68.7909 722.202 -68.691 722.056 -68.6066Z" fill="#14B8A6"/>
</g>
</g>
<g filter="url(#filter1_dddddd_620_5945)">
<rect x="702.873" y="337.873" width="104.428" height="104.428" rx="22.3954" fill="#030712" stroke="#2DD4BF" stroke-width="1.74509"/>
<path d="M769.988 373.034C769.988 379.903 760.745 392.018 756.749 397.014C755.874 398.263 754.001 398.263 753.127 397.014C749.13 392.018 740.012 379.903 740.012 373.034C740.012 364.791 746.632 358.046 755 358.046C763.243 358.046 769.988 364.791 769.988 373.034ZM770.987 383.151C771.361 382.276 771.736 381.402 772.111 380.528C772.236 380.403 772.236 380.278 772.361 380.153L786.849 374.283C788.722 373.533 790.97 374.907 790.97 377.031V410.878C790.97 412.127 790.221 413.251 788.972 413.75L770.987 420.869V383.151ZM736.141 375.407C736.515 377.155 737.015 378.904 737.764 380.528C738.139 381.402 738.514 382.276 739.013 383.151V414.5L723.026 420.869C721.153 421.619 719.03 420.245 719.03 418.122V384.275C719.03 383.026 719.779 381.902 720.903 381.527L736.141 375.407ZM759.871 399.512C761.62 397.389 764.367 393.892 766.99 389.895V421.119L743.01 414.25V389.895C745.508 393.892 748.256 397.389 750.004 399.512C752.502 402.759 757.373 402.759 759.871 399.512ZM755 377.031C756.749 377.031 758.372 376.156 759.246 374.533C760.121 373.034 760.121 371.16 759.246 369.537C758.372 368.038 756.749 367.039 755 367.039C753.127 367.039 751.503 368.038 750.629 369.537C749.754 371.16 749.754 373.034 750.629 374.533C751.503 376.156 753.127 377.031 755 377.031Z" fill="#F9FAFB"/>
</g>
<g filter="url(#filter2_dddddd_620_5945)">
<path d="M553 168.324C553 159.308 560.308 152 569.324 152H738.618C747.633 152 754.941 159.308 754.941 168.324V211.853C754.941 220.868 747.633 228.176 738.618 228.176H569.324C560.308 228.176 553 220.868 553 211.853V168.324Z" fill="#030712"/>
<path d="M569.323 153.36H738.617C746.881 153.36 753.581 160.059 753.581 168.323V211.853C753.581 220.117 746.881 226.816 738.617 226.816H569.323C561.059 226.816 554.36 220.116 554.36 211.853V168.323C554.36 160.059 561.059 153.361 569.323 153.36Z" stroke="#2DD4BF" stroke-width="2.72059"/>
<mask id="mask0_620_5945" style="mask-type:alpha" maskUnits="userSpaceOnUse" x="577" y="176" width="28" height="29">
<path d="M585.987 176.68C586.678 176.68 587.262 177.265 587.262 177.955V180.081H594.914V177.955C594.914 177.265 595.445 176.68 596.189 176.68C596.88 176.68 597.465 177.265 597.465 177.955V180.081H599.59C601.45 180.081 602.991 181.622 602.991 183.482V184.332V186.882V200.485C602.991 202.398 601.45 203.886 599.59 203.886H582.586C580.673 203.886 579.186 202.398 579.186 200.485V186.882V184.332V183.482C579.186 181.622 580.673 180.081 582.586 180.081H584.712V177.955C584.712 177.265 585.243 176.68 585.987 176.68ZM600.44 186.882H581.736V200.485C581.736 200.964 582.108 201.336 582.586 201.336H599.59C600.015 201.336 600.44 200.964 600.44 200.485V186.882ZM585.137 190.283H590.238C590.663 190.283 591.088 190.708 591.088 191.133V196.234C591.088 196.713 590.663 197.085 590.238 197.085H585.137C584.659 197.085 584.287 196.713 584.287 196.234V191.133C584.287 190.708 584.659 190.283 585.137 190.283Z" fill="#2DD4BF"/>
</mask>
<g mask="url(#mask0_620_5945)">
<path d="M574.765 173.765H607.765V206.765H574.765V173.765Z" fill="#2DD4BF"/>
</g>
<path d="M631.233 204.588V176.822H641.25L646.126 191.867L647.992 197.466H648.297L650.163 191.867L654.962 176.822H664.979V204.588H658.809V193.619L658.962 182.764H658.619L656.105 190.572L651.115 204.588H645.135L640.184 190.686L637.632 182.764H637.289L637.48 193.695V204.588H631.233ZM670.85 204.588L682.734 176.822H691.342L703.263 204.588H696.065L688.485 185.24L687.152 181.659H686.924L685.552 185.278L678.011 204.588H670.85ZM679.725 199.027L681.553 194.076H692.523L694.313 199.027H679.725ZM713.841 204.588V194.076L702.033 176.822H709.537L714.717 184.859L717.078 188.82H717.307L719.706 184.859L724.962 176.822H732.428L720.506 194.076V204.588H713.841Z" fill="#2DD4BF"/>
</g>
<g filter="url(#filter3_dddddd_620_5945)">
<path d="M227 332.25C227 326.037 232.037 321 238.25 321H387.25C393.463 321 398.5 326.037 398.5 332.25V362.25C398.5 368.463 393.463 373.5 387.25 373.5H238.25C232.037 373.5 227 368.463 227 362.25V332.25Z" fill="#030712"/>
<path d="M238.25 321.938H387.25C392.945 321.938 397.562 326.555 397.562 332.25V362.25C397.562 367.945 392.945 372.562 387.25 372.562H238.25C232.555 372.562 227.938 367.945 227.938 362.25V332.25C227.938 326.555 232.555 321.938 238.25 321.938Z" stroke="#374151" stroke-width="1.875"/>
<mask id="mask1_620_5945" style="mask-type:alpha" maskUnits="userSpaceOnUse" x="243" y="337" width="21" height="20">
<path d="M253.25 339.227C250.503 339.227 248.013 340.691 246.622 343.035C245.267 345.416 245.267 348.309 246.622 350.652C248.013 353.033 250.503 354.461 253.25 354.461C255.96 354.461 258.45 353.033 259.842 350.652C261.197 348.309 261.197 345.416 259.842 343.035C258.45 340.691 255.96 339.227 253.25 339.227ZM253.25 356.219C249.881 356.219 246.805 354.461 245.12 351.531C243.436 348.638 243.436 345.086 245.12 342.156C246.805 339.263 249.881 337.469 253.25 337.469C256.583 337.469 259.659 339.263 261.343 342.156C263.028 345.086 263.028 348.638 261.343 351.531C259.659 354.461 256.583 356.219 253.25 356.219ZM257.388 345.123L252.701 349.81C252.334 350.176 251.785 350.176 251.456 349.81L249.112 347.466C248.746 347.137 248.746 346.587 249.112 346.258C249.441 345.892 249.991 345.892 250.357 346.258L252.078 347.979L256.143 343.914C256.473 343.548 257.022 343.548 257.388 343.914C257.718 344.244 257.718 344.793 257.388 345.123Z" fill="#2DD4BF"/>
</mask>
<g mask="url(#mask1_620_5945)">
<path d="M242 336H265V359H242V336Z" fill="#9CA3AF"/>
</g>
<path d="M279.5 357.25L287.69 338.114H293.623L301.839 357.25H296.878L291.654 343.915L290.735 341.447H290.578L289.633 343.941L284.435 357.25H279.5ZM285.616 353.417L286.876 350.005H294.436L295.67 353.417H285.616ZM305.896 357.25V338.114H315.74C317.49 338.114 318.907 338.367 319.992 338.875C321.095 339.382 321.909 340.109 322.434 341.054C322.976 341.981 323.247 343.084 323.247 344.361C323.247 345.796 322.932 346.977 322.302 347.905C321.69 348.815 320.815 349.497 319.677 349.952C318.557 350.39 317.236 350.609 315.714 350.609H310.122V347.38H315.241C316.414 347.38 317.271 347.126 317.814 346.619C318.356 346.094 318.627 345.394 318.627 344.519C318.627 343.486 318.321 342.76 317.709 342.34C317.096 341.902 316.274 341.684 315.241 341.684H309.492L310.49 340.686V357.25H305.896ZM327.67 357.25V338.114H339.535C340.445 338.114 341.259 338.192 341.976 338.35C342.694 338.507 343.315 338.744 343.84 339.059C344.365 339.374 344.803 339.75 345.153 340.187C345.503 340.607 345.756 341.097 345.914 341.657C346.089 342.2 346.176 342.795 346.176 343.442C346.176 344.685 345.861 345.717 345.231 346.54C344.601 347.345 343.753 347.896 342.685 348.194V348.377C343.35 348.482 343.901 348.684 344.339 348.981C344.794 349.279 345.135 349.672 345.363 350.162C345.59 350.652 345.704 351.256 345.704 351.974V355.281C345.704 355.631 345.713 355.964 345.73 356.279C345.765 356.576 345.826 356.9 345.914 357.25H341.268C341.198 356.97 341.154 356.672 341.136 356.357C341.119 356.025 341.11 355.675 341.11 355.307V352.682C341.11 352.087 341.023 351.606 340.848 351.239C340.673 350.871 340.375 350.6 339.955 350.425C339.535 350.25 338.949 350.162 338.196 350.162H331.896V346.881H338.039C339.351 346.881 340.261 346.627 340.769 346.12C341.276 345.612 341.53 344.947 341.53 344.125C341.53 343.67 341.443 343.276 341.268 342.944C341.11 342.611 340.874 342.349 340.559 342.156C340.261 341.964 339.894 341.824 339.456 341.736C339.036 341.631 338.564 341.579 338.039 341.579H332.264V357.25H327.67ZM354.941 353.942V341.395H359.508V353.942H354.941ZM350.373 341.789V338.114H364.207V341.789H350.373ZM350.373 357.25V353.575H364.207V357.25H350.373ZM368.834 357.25V338.114H373.428V354.441L372.431 353.496H382.983V357.25H368.834Z" fill="#F9FAFB"/>
</g>
<g clip-path="url(#clip1_620_5945)">
<rect x="48" y="50" width="253" height="42" rx="21" fill="#030712"/>
<g filter="url(#filter4_dddddd_620_5945)">
<path fill-rule="evenodd" clip-rule="evenodd" d="M68.5804 72.2154C68.3792 72.5532 68.3823 72.9794 68.5884 73.3141L72.3179 79.3715C72.5599 79.7646 73.0265 79.9439 73.4595 79.8102L84.2219 76.4858C84.8092 76.3044 85.1047 75.6298 84.848 75.0564L77.9294 59.6037C77.592 58.8501 76.5749 58.7883 76.1537 59.4957L68.5804 72.2154ZM77.7456 63.1364C77.5985 62.786 77.1006 62.84 77.0276 63.2142L74.364 76.8697C74.3078 77.1577 74.5697 77.4036 74.843 77.3196L82.2789 75.0341C82.496 74.9674 82.6078 74.7206 82.5179 74.5065L77.7456 63.1364Z" fill="#99F6E4"/>
<path d="M67.9972 74.6406L71.7267 80.698C71.9687 81.0912 72.4353 81.2705 72.8683 81.1367L83.6307 77.8123" stroke="#99F6E4" stroke-width="0.5625" stroke-linecap="round"/>
<path d="M67.375 76.3784L71.1045 82.4358C71.3465 82.829 71.8131 83.0082 72.2461 82.8745L83.0085 79.5501" stroke="#99F6E4" stroke-width="0.5625" stroke-linecap="round"/>
</g>
<path d="M97.134 79V63.691H105.009C106.409 63.691 107.543 63.894 108.411 64.3C109.293 64.706 109.944 65.287 110.364 66.043C110.798 66.785 111.015 67.667 111.015 68.689C111.015 69.837 110.763 70.782 110.259 71.524C109.769 72.252 109.069 72.798 108.159 73.162C107.263 73.512 106.206 73.687 104.988 73.687H100.515V71.104H104.61C105.548 71.104 106.234 70.901 106.668 70.495C107.102 70.075 107.319 69.515 107.319 68.815C107.319 67.989 107.074 67.408 106.584 67.072C106.094 66.722 105.436 66.547 104.61 66.547H100.011L100.809 65.749V79H97.134ZM114.553 79V63.691H124.045C124.773 63.691 125.424 63.754 125.998 63.88C126.572 64.006 127.069 64.195 127.489 64.447C127.909 64.699 128.259 65 128.539 65.35C128.819 65.686 129.022 66.078 129.148 66.526C129.288 66.96 129.358 67.436 129.358 67.954C129.358 68.948 129.106 69.774 128.602 70.432C128.098 71.076 127.419 71.517 126.565 71.755V71.902C127.097 71.986 127.538 72.147 127.888 72.385C128.252 72.623 128.525 72.938 128.707 73.33C128.889 73.722 128.98 74.205 128.98 74.779V77.425C128.98 77.705 128.987 77.971 129.001 78.223C129.029 78.461 129.078 78.72 129.148 79H125.431C125.375 78.776 125.34 78.538 125.326 78.286C125.312 78.02 125.305 77.74 125.305 77.446V75.346C125.305 74.87 125.235 74.485 125.095 74.191C124.955 73.897 124.717 73.68 124.381 73.54C124.045 73.4 123.576 73.33 122.974 73.33H117.934V70.705H122.848C123.898 70.705 124.626 70.502 125.032 70.096C125.438 69.69 125.641 69.158 125.641 68.5C125.641 68.136 125.571 67.821 125.431 67.555C125.305 67.289 125.116 67.079 124.864 66.925C124.626 66.771 124.332 66.659 123.982 66.589C123.646 66.505 123.268 66.463 122.848 66.463H118.228V79H114.553ZM136.37 76.354V66.316H140.024V76.354H136.37ZM132.716 66.631V63.691H143.783V66.631H132.716ZM132.716 79V76.06H143.783V79H132.716ZM154.161 79.189C152.467 79.189 151.074 78.979 149.982 78.559C148.89 78.125 148.078 77.523 147.546 76.753C147.014 75.983 146.741 75.108 146.727 74.128H150.549C150.577 74.66 150.731 75.115 151.011 75.493C151.291 75.871 151.704 76.165 152.25 76.375C152.81 76.571 153.489 76.669 154.287 76.669C155.015 76.669 155.617 76.599 156.093 76.459C156.583 76.305 156.947 76.081 157.185 75.787C157.437 75.493 157.563 75.15 157.563 74.758C157.563 74.38 157.486 74.079 157.332 73.855C157.192 73.617 156.968 73.435 156.66 73.309C156.352 73.169 155.953 73.057 155.463 72.973C154.987 72.889 154.406 72.805 153.72 72.721C152.642 72.595 151.69 72.427 150.864 72.217C150.038 72.007 149.345 71.734 148.785 71.398C148.239 71.062 147.826 70.635 147.546 70.117C147.266 69.599 147.126 68.962 147.126 68.206C147.126 67.198 147.406 66.351 147.966 65.665C148.526 64.965 149.317 64.433 150.339 64.069C151.375 63.691 152.607 63.502 154.035 63.502C155.365 63.502 156.52 63.684 157.5 64.048C158.494 64.412 159.271 64.937 159.831 65.623C160.391 66.309 160.706 67.142 160.776 68.122H157.08C157.024 67.618 156.863 67.212 156.597 66.904C156.331 66.596 155.967 66.372 155.505 66.232C155.043 66.078 154.504 66.001 153.888 66.001C153.258 66.001 152.719 66.078 152.271 66.232C151.823 66.372 151.48 66.575 151.242 66.841C151.004 67.107 150.885 67.429 150.885 67.807C150.885 68.241 151.004 68.577 151.242 68.815C151.48 69.039 151.879 69.214 152.439 69.34C152.999 69.452 153.755 69.564 154.707 69.676C155.813 69.816 156.779 69.984 157.605 70.18C158.431 70.376 159.117 70.649 159.663 70.999C160.223 71.335 160.643 71.783 160.923 72.343C161.203 72.903 161.343 73.61 161.343 74.464C161.343 75.444 161.063 76.291 160.503 77.005C159.957 77.705 159.152 78.244 158.088 78.622C157.024 79 155.715 79.189 154.161 79.189ZM164.884 79V63.691H170.407L173.095 71.986L174.124 75.073H174.292L175.321 71.986L177.967 63.691H183.49V79H180.088V72.952L180.172 66.967H179.983L178.597 71.272L175.846 79H172.549L169.819 71.335L168.412 66.967H168.223L168.328 72.994V79H164.884ZM186.727 79L193.279 63.691H198.025L204.598 79H200.629L196.45 68.332L195.715 66.358H195.589L194.833 68.353L190.675 79H186.727ZM191.62 75.934L192.628 73.204H198.676L199.663 75.934H191.62ZM214.414 79V63.691H218.866L226.51 74.254H226.678L226.552 69.613V63.691H230.185V79H225.796L218.152 68.521H217.984L218.11 72.994V79H214.414ZM234.561 79V63.691H247.539V66.589H237.396L238.236 65.77V76.921L237.396 76.102H247.581V79H234.561ZM237.459 72.616V69.907H246.489V72.616H237.459ZM250.661 79L256.961 71.083L251.06 63.691H255.617L258.179 67.135L259.271 68.71L259.439 68.731L260.552 67.135L263.135 63.691H267.587L261.77 70.978L267.944 79H263.366L260.447 75.178L259.313 73.624H259.166L257.99 75.178L255.008 79H250.661ZM275.463 79V66.316H279.117V79H275.463ZM270.381 66.631V63.691H284.262V66.631H270.381Z" fill="#2DD4BF"/>
</g>
<rect x="48.75" y="50.75" width="251.5" height="40.5" rx="20.25" stroke="#2DD4BF" stroke-width="1.5"/>
<g filter="url(#filter5_dddddd_620_5945)">
<path d="M51.29 177V125.97H84.47C87.0833 125.97 89.3933 126.203 91.4 126.67C93.4533 127.09 95.2033 127.743 96.65 128.63C98.1433 129.47 99.3567 130.497 100.29 131.71C101.27 132.877 101.97 134.207 102.39 135.7C102.857 137.193 103.09 138.827 103.09 140.6C103.09 143.913 102.203 146.667 100.43 148.86C98.7033 151.053 96.4633 152.547 93.71 153.34V153.76C95.39 154.04 96.8133 154.577 97.98 155.37C99.1933 156.117 100.127 157.12 100.78 158.38C101.433 159.64 101.76 161.203 101.76 163.07V171.68C101.76 172.707 101.783 173.617 101.83 174.41C101.923 175.203 102.087 176.067 102.32 177H86.08C85.8933 176.253 85.7767 175.46 85.73 174.62C85.73 173.733 85.73 172.823 85.73 171.89V165.52C85.73 164.167 85.52 163.093 85.1 162.3C84.68 161.46 84.0033 160.877 83.07 160.55C82.1367 160.177 80.8533 159.99 79.22 159.99H66.2V148.65H79.08C82.1133 148.65 84.1667 148.137 85.24 147.11C86.3133 146.083 86.85 144.73 86.85 143.05C86.85 142.07 86.6633 141.253 86.29 140.6C85.9167 139.9 85.38 139.363 84.68 138.99C84.0267 138.617 83.21 138.36 82.23 138.22C81.2967 138.033 80.2467 137.94 79.08 137.94H67.32V177H51.29ZM128.755 177.7C125.208 177.7 121.988 177.28 119.095 176.44C116.202 175.553 113.705 174.27 111.605 172.59C109.552 170.91 107.965 168.857 106.845 166.43C105.725 163.957 105.165 161.133 105.165 157.96C105.165 153.76 106.145 150.19 108.105 147.25C110.065 144.31 112.795 142.07 116.295 140.53C119.842 138.99 123.995 138.22 128.755 138.22C132.302 138.22 135.522 138.663 138.415 139.55C141.308 140.39 143.782 141.65 145.835 143.33C147.935 145.01 149.545 147.087 150.665 149.56C151.785 151.987 152.345 154.787 152.345 157.96C152.345 162.113 151.365 165.683 149.405 168.67C147.492 171.61 144.762 173.85 141.215 175.39C137.715 176.93 133.562 177.7 128.755 177.7ZM128.755 166.01C130.575 166.01 132.092 165.683 133.305 165.03C134.518 164.377 135.428 163.443 136.035 162.23C136.642 161.017 136.945 159.593 136.945 157.96C136.945 156.7 136.758 155.58 136.385 154.6C136.058 153.573 135.545 152.71 134.845 152.01C134.192 151.31 133.352 150.773 132.325 150.4C131.298 150.027 130.108 149.84 128.755 149.84C126.982 149.84 125.488 150.167 124.275 150.82C123.062 151.473 122.152 152.407 121.545 153.62C120.938 154.833 120.635 156.28 120.635 157.96C120.635 159.22 120.798 160.34 121.125 161.32C121.498 162.3 122.012 163.14 122.665 163.84C123.365 164.54 124.205 165.077 125.185 165.45C126.212 165.823 127.402 166.01 128.755 166.01ZM167.339 177.7C163.419 177.7 160.245 176.743 157.819 174.83C155.392 172.917 154.179 170.303 154.179 166.99C154.179 165.03 154.575 163.28 155.369 161.74C156.209 160.153 157.375 158.847 158.869 157.82C160.362 156.747 162.135 155.93 164.189 155.37C166.289 154.81 168.622 154.53 171.189 154.53H181.199V162.23H174.479C173.545 162.23 172.705 162.347 171.959 162.58C171.212 162.767 170.629 163.093 170.209 163.56C169.835 164.027 169.649 164.633 169.649 165.38C169.649 166.313 170.022 167.037 170.769 167.55C171.515 168.063 172.542 168.32 173.849 168.32C175.855 168.32 177.395 167.853 178.469 166.92C179.542 165.987 180.079 164.773 180.079 163.28V152.43C180.079 151.59 179.915 150.89 179.589 150.33C179.262 149.77 178.725 149.35 177.979 149.07C177.279 148.79 176.322 148.65 175.109 148.65C174.222 148.65 173.382 148.743 172.589 148.93C171.795 149.117 171.142 149.467 170.629 149.98C170.115 150.447 169.835 151.17 169.789 152.15H155.159C155.392 149.21 156.349 146.713 158.029 144.66C159.755 142.56 162.089 140.973 165.029 139.9C167.969 138.78 171.352 138.22 175.179 138.22C178.492 138.22 181.409 138.547 183.929 139.2C186.449 139.853 188.572 140.81 190.299 142.07C192.025 143.33 193.309 144.87 194.149 146.69C195.035 148.51 195.479 150.587 195.479 152.92V165.24C195.479 165.94 195.642 166.453 195.969 166.78C196.342 167.06 196.762 167.2 197.229 167.2H198.769V177H191.209C188.735 177 186.682 176.58 185.049 175.74C183.415 174.9 182.225 173.617 181.479 171.89H180.989C179.915 173.71 178.142 175.133 175.669 176.16C173.195 177.187 170.419 177.7 167.339 177.7ZM218.461 177.56C215.708 177.56 213.211 177.117 210.971 176.23C208.731 175.297 206.794 173.967 205.161 172.24C203.528 170.513 202.268 168.437 201.381 166.01C200.494 163.583 200.051 160.877 200.051 157.89C200.051 153.877 200.821 150.4 202.361 147.46C203.901 144.52 206.071 142.257 208.871 140.67C211.671 139.037 214.914 138.22 218.601 138.22C220.421 138.22 222.148 138.43 223.781 138.85C225.414 139.27 226.861 139.9 228.121 140.74C229.428 141.533 230.478 142.537 231.271 143.75H231.831V125.97H247.301V177H232.601L232.181 172.1H231.621C230.548 173.687 228.938 174.993 226.791 176.02C224.644 177.047 221.868 177.56 218.461 177.56ZM223.501 166.01C225.228 166.01 226.698 165.683 227.911 165.03C229.171 164.377 230.128 163.467 230.781 162.3C231.434 161.133 231.761 159.803 231.761 158.31V157.47C231.761 155.977 231.434 154.67 230.781 153.55C230.128 152.383 229.194 151.473 227.981 150.82C226.768 150.167 225.274 149.84 223.501 149.84C221.914 149.84 220.514 150.143 219.301 150.75C218.134 151.357 217.224 152.267 216.571 153.48C215.918 154.647 215.591 156.117 215.591 157.89C215.591 159.617 215.918 161.087 216.571 162.3C217.224 163.513 218.134 164.447 219.301 165.1C220.514 165.707 221.914 166.01 223.501 166.01ZM253.354 177V138.92H268.124L268.824 144.52H269.524C270.737 142.467 272.417 140.903 274.564 139.83C276.757 138.757 279.3 138.22 282.194 138.22C285.274 138.22 287.957 138.85 290.244 140.11C292.53 141.323 294.257 143.237 295.424 145.85H296.124C297.664 143.05 299.647 141.09 302.074 139.97C304.5 138.803 307.277 138.22 310.404 138.22C313.67 138.22 316.47 138.873 318.804 140.18C321.184 141.44 323.004 143.4 324.264 146.06C325.524 148.673 326.154 152.057 326.154 156.21V177H310.684V158.17C310.684 156.537 310.52 155.09 310.194 153.83C309.867 152.57 309.26 151.59 308.374 150.89C307.534 150.143 306.297 149.77 304.664 149.77C303.124 149.77 301.817 150.097 300.744 150.75C299.67 151.403 298.854 152.313 298.294 153.48C297.734 154.6 297.454 155.907 297.454 157.4V177H282.054V158.03C282.054 156.443 281.89 155.043 281.564 153.83C281.284 152.57 280.7 151.59 279.814 150.89C278.927 150.143 277.644 149.77 275.964 149.77C274.424 149.77 273.117 150.12 272.044 150.82C271.017 151.473 270.224 152.383 269.664 153.55C269.104 154.67 268.824 155.953 268.824 157.4V177H253.354ZM342.68 177.7C338.76 177.7 335.587 176.743 333.16 174.83C330.734 172.917 329.52 170.303 329.52 166.99C329.52 165.03 329.917 163.28 330.71 161.74C331.55 160.153 332.717 158.847 334.21 157.82C335.704 156.747 337.477 155.93 339.53 155.37C341.63 154.81 343.964 154.53 346.53 154.53H356.54V162.23H349.82C348.887 162.23 348.047 162.347 347.3 162.58C346.554 162.767 345.97 163.093 345.55 163.56C345.177 164.027 344.99 164.633 344.99 165.38C344.99 166.313 345.364 167.037 346.11 167.55C346.857 168.063 347.884 168.32 349.19 168.32C351.197 168.32 352.737 167.853 353.81 166.92C354.884 165.987 355.42 164.773 355.42 163.28V152.43C355.42 151.59 355.257 150.89 354.93 150.33C354.604 149.77 354.067 149.35 353.32 149.07C352.62 148.79 351.664 148.65 350.45 148.65C349.564 148.65 348.724 148.743 347.93 148.93C347.137 149.117 346.484 149.467 345.97 149.98C345.457 150.447 345.177 151.17 345.13 152.15H330.5C330.734 149.21 331.69 146.713 333.37 144.66C335.097 142.56 337.43 140.973 340.37 139.9C343.31 138.78 346.694 138.22 350.52 138.22C353.834 138.22 356.75 138.547 359.27 139.2C361.79 139.853 363.914 140.81 365.64 142.07C367.367 143.33 368.65 144.87 369.49 146.69C370.377 148.51 370.82 150.587 370.82 152.92V165.24C370.82 165.94 370.984 166.453 371.31 166.78C371.684 167.06 372.104 167.2 372.57 167.2H374.11V177H366.55C364.077 177 362.024 176.58 360.39 175.74C358.757 174.9 357.567 173.617 356.82 171.89H356.33C355.257 173.71 353.484 175.133 351.01 176.16C348.537 177.187 345.76 177.7 342.68 177.7ZM377.563 188.69V138.92H392.193L392.683 143.89H393.173C394.293 142.257 395.903 140.927 398.003 139.9C400.149 138.873 402.926 138.36 406.333 138.36C409.086 138.36 411.583 138.827 413.823 139.76C416.063 140.647 417.999 141.953 419.633 143.68C421.266 145.36 422.526 147.413 423.413 149.84C424.299 152.267 424.743 154.997 424.743 158.03C424.743 162.043 423.973 165.52 422.433 168.46C420.893 171.4 418.723 173.687 415.923 175.32C413.169 176.907 409.926 177.7 406.193 177.7C404.373 177.7 402.646 177.467 401.013 177C399.379 176.58 397.933 175.973 396.673 175.18C395.413 174.34 394.363 173.337 393.523 172.17H393.033V188.69H377.563ZM401.363 166.15C402.949 166.15 404.326 165.847 405.493 165.24C406.659 164.633 407.569 163.723 408.223 162.51C408.923 161.297 409.273 159.803 409.273 158.03C409.273 156.257 408.946 154.787 408.293 153.62C407.639 152.407 406.706 151.497 405.493 150.89C404.326 150.237 402.949 149.91 401.363 149.91C399.636 149.91 398.143 150.237 396.883 150.89C395.623 151.543 394.666 152.453 394.013 153.62C393.359 154.74 393.033 156.07 393.033 157.61V158.45C393.033 159.943 393.359 161.273 394.013 162.44C394.666 163.607 395.623 164.517 396.883 165.17C398.143 165.823 399.636 166.15 401.363 166.15ZM75.93 247.7C70.75 247.7 66.2233 246.907 62.35 245.32C58.5233 243.733 55.56 241.237 53.46 237.83C51.36 234.423 50.31 230.037 50.31 224.67V195.97H66.06V224.74C66.06 226.7 66.34 228.427 66.9 229.92C67.5067 231.413 68.51 232.58 69.91 233.42C71.3567 234.26 73.3633 234.68 75.93 234.68C77.89 234.68 79.5933 234.4 81.04 233.84C82.5333 233.28 83.7 232.277 84.54 230.83C85.38 229.383 85.8 227.353 85.8 224.74V195.97H101.62V224.67C101.62 229.243 100.733 233.28 98.96 236.78C97.2333 240.233 94.48 242.917 90.7 244.83C86.92 246.743 81.9967 247.7 75.93 247.7ZM106.791 258.69V208.92H121.421L121.911 213.89H122.401C123.521 212.257 125.131 210.927 127.231 209.9C129.378 208.873 132.155 208.36 135.561 208.36C138.315 208.36 140.811 208.827 143.051 209.76C145.291 210.647 147.228 211.953 148.861 213.68C150.495 215.36 151.755 217.413 152.641 219.84C153.528 222.267 153.971 224.997 153.971 228.03C153.971 232.043 153.201 235.52 151.661 238.46C150.121 241.4 147.951 243.687 145.151 245.32C142.398 246.907 139.155 247.7 135.421 247.7C133.601 247.7 131.875 247.467 130.241 247C128.608 246.58 127.161 245.973 125.901 245.18C124.641 244.34 123.591 243.337 122.751 242.17H122.261V258.69H106.791ZM130.591 236.15C132.178 236.15 133.555 235.847 134.721 235.24C135.888 234.633 136.798 233.723 137.451 232.51C138.151 231.297 138.501 229.803 138.501 228.03C138.501 226.257 138.175 224.787 137.521 223.62C136.868 222.407 135.935 221.497 134.721 220.89C133.555 220.237 132.178 219.91 130.591 219.91C128.865 219.91 127.371 220.237 126.111 220.89C124.851 221.543 123.895 222.453 123.241 223.62C122.588 224.74 122.261 226.07 122.261 227.61V228.45C122.261 229.943 122.588 231.273 123.241 232.44C123.895 233.607 124.851 234.517 126.111 235.17C127.371 235.823 128.865 236.15 130.591 236.15ZM175.326 247.56C172.573 247.56 170.076 247.117 167.836 246.23C165.596 245.297 163.66 243.967 162.026 242.24C160.393 240.513 159.133 238.437 158.246 236.01C157.36 233.583 156.916 230.877 156.916 227.89C156.916 223.877 157.686 220.4 159.226 217.46C160.766 214.52 162.936 212.257 165.736 210.67C168.536 209.037 171.78 208.22 175.466 208.22C177.286 208.22 179.013 208.43 180.646 208.85C182.28 209.27 183.726 209.9 184.986 210.74C186.293 211.533 187.343 212.537 188.136 213.75H188.696V195.97H204.166V247H189.466L189.046 242.1H188.486C187.413 243.687 185.803 244.993 183.656 246.02C181.51 247.047 178.733 247.56 175.326 247.56ZM180.366 236.01C182.093 236.01 183.563 235.683 184.776 235.03C186.036 234.377 186.993 233.467 187.646 232.3C188.3 231.133 188.626 229.803 188.626 228.31V227.47C188.626 225.977 188.3 224.67 187.646 223.55C186.993 222.383 186.06 221.473 184.846 220.82C183.633 220.167 182.14 219.84 180.366 219.84C178.78 219.84 177.38 220.143 176.166 220.75C175 221.357 174.09 222.267 173.436 223.48C172.783 224.647 172.456 226.117 172.456 227.89C172.456 229.617 172.783 231.087 173.436 232.3C174.09 233.513 175 234.447 176.166 235.1C177.38 235.707 178.78 236.01 180.366 236.01ZM221.069 247.7C217.149 247.7 213.976 246.743 211.549 244.83C209.122 242.917 207.909 240.303 207.909 236.99C207.909 235.03 208.306 233.28 209.099 231.74C209.939 230.153 211.106 228.847 212.599 227.82C214.092 226.747 215.866 225.93 217.919 225.37C220.019 224.81 222.352 224.53 224.919 224.53H234.929V232.23H228.209C227.276 232.23 226.436 232.347 225.689 232.58C224.942 232.767 224.359 233.093 223.939 233.56C223.566 234.027 223.379 234.633 223.379 235.38C223.379 236.313 223.752 237.037 224.499 237.55C225.246 238.063 226.272 238.32 227.579 238.32C229.586 238.32 231.126 237.853 232.199 236.92C233.272 235.987 233.809 234.773 233.809 233.28V222.43C233.809 221.59 233.646 220.89 233.319 220.33C232.992 219.77 232.456 219.35 231.709 219.07C231.009 218.79 230.052 218.65 228.839 218.65C227.952 218.65 227.112 218.743 226.319 218.93C225.526 219.117 224.872 219.467 224.359 219.98C223.846 220.447 223.566 221.17 223.519 222.15H208.889C209.122 219.21 210.079 216.713 211.759 214.66C213.486 212.56 215.819 210.973 218.759 209.9C221.699 208.78 225.082 208.22 228.909 208.22C232.222 208.22 235.139 208.547 237.659 209.2C240.179 209.853 242.302 210.81 244.029 212.07C245.756 213.33 247.039 214.87 247.879 216.69C248.766 218.51 249.209 220.587 249.209 222.92V235.24C249.209 235.94 249.372 236.453 249.699 236.78C250.072 237.06 250.492 237.2 250.959 237.2H252.499V247H244.939C242.466 247 240.412 246.58 238.779 245.74C237.146 244.9 235.956 243.617 235.209 241.89H234.719C233.646 243.71 231.872 245.133 229.399 246.16C226.926 247.187 224.149 247.7 221.069 247.7ZM270.17 247C266.623 247 263.94 246.067 262.12 244.2C260.3 242.333 259.39 239.65 259.39 236.15V220.47H252.88V208.92H259.39V200.17L274.58 197.3V208.92H283.61V220.47H274.58V231.53C274.58 232.51 274.836 233.163 275.35 233.49C275.863 233.817 276.516 233.98 277.31 233.98H283.61V247H270.17ZM309.629 247.7C304.682 247.7 300.459 246.883 296.959 245.25C293.505 243.617 290.845 241.353 288.979 238.46C287.159 235.52 286.249 232.113 286.249 228.24C286.249 223.993 287.229 220.4 289.189 217.46C291.149 214.473 293.902 212.21 297.449 210.67C300.995 209.083 305.149 208.29 309.909 208.29C315.415 208.29 319.965 209.27 323.559 211.23C327.199 213.19 329.812 215.92 331.399 219.42C333.032 222.92 333.569 227.003 333.009 231.67H302.559C302.605 232.883 302.955 233.887 303.609 234.68C304.309 235.473 305.242 236.08 306.409 236.5C307.622 236.873 308.999 237.06 310.539 237.06C312.172 237.06 313.642 236.803 314.949 236.29C316.255 235.777 317.095 235.147 317.469 234.4H332.729C332.215 237.247 330.909 239.673 328.809 241.68C326.755 243.64 324.072 245.133 320.759 246.16C317.492 247.187 313.782 247.7 309.629 247.7ZM302.069 224.32L301.649 223.62H318.099L317.539 224.25C317.492 222.99 317.189 221.917 316.629 221.03C316.069 220.143 315.229 219.49 314.109 219.07C312.989 218.603 311.589 218.37 309.909 218.37C308.322 218.37 306.945 218.603 305.779 219.07C304.659 219.537 303.772 220.213 303.119 221.1C302.512 221.987 302.162 223.06 302.069 224.32Z" fill="#F9FAFB"/>
</g>
</g>
<defs>
<filter id="filter0_ddddddf_620_5945" x="78.2542" y="-122.659" width="832.94" height="897.579" filterUnits="userSpaceOnUse" color-interpolation-filters="sRGB">
<feFlood flood-opacity="0" result="BackgroundImageFix"/>
<feColorMatrix in="SourceAlpha" type="matrix" values="0 0 0 0 0 0 0 0 0 0 0 0 0 0 0 0 0 0 127 0" result="hardAlpha"/>
<feOffset dy="4.15088"/>
<feGaussianBlur stdDeviation="1.66035"/>
<feColorMatrix type="matrix" values="0 0 0 0 0 0 0 0 0 0 0 0 0 0 0 0 0 0 0.0787208 0"/>
<feBlend mode="normal" in2="BackgroundImageFix" result="effect1_dropShadow_620_5945"/>
<feColorMatrix in="SourceAlpha" type="matrix" values="0 0 0 0 0 0 0 0 0 0 0 0 0 0 0 0 0 0 127 0" result="hardAlpha"/>
<feOffset dy="9.97515"/>
<feGaussianBlur stdDeviation="3.99006"/>
<feColorMatrix type="matrix" values="0 0 0 0 0 0 0 0 0 0 0 0 0 0 0 0 0 0 0.11309 0"/>
<feBlend mode="normal" in2="effect1_dropShadow_620_5945" result="effect2_dropShadow_620_5945"/>
<feColorMatrix in="SourceAlpha" type="matrix" values="0 0 0 0 0 0 0 0 0 0 0 0 0 0 0 0 0 0 127 0" result="hardAlpha"/>
<feOffset dy="18.7823"/>
<feGaussianBlur stdDeviation="7.51293"/>
<feColorMatrix type="matrix" values="0 0 0 0 0 0 0 0 0 0 0 0 0 0 0 0 0 0 0.14 0"/>
<feBlend mode="normal" in2="effect2_dropShadow_620_5945" result="effect3_dropShadow_620_5945"/>
<feColorMatrix in="SourceAlpha" type="matrix" values="0 0 0 0 0 0 0 0 0 0 0 0 0 0 0 0 0 0 127 0" result="hardAlpha"/>
<feOffset dy="33.5045"/>
<feGaussianBlur stdDeviation="13.4018"/>
<feColorMatrix type="matrix" values="0 0 0 0 0 0 0 0 0 0 0 0 0 0 0 0 0 0 0.16691 0"/>
<feBlend mode="normal" in2="effect3_dropShadow_620_5945" result="effect4_dropShadow_620_5945"/>
<feColorMatrix in="SourceAlpha" type="matrix" values="0 0 0 0 0 0 0 0 0 0 0 0 0 0 0 0 0 0 127 0" result="hardAlpha"/>
<feOffset dy="62.6664"/>
<feGaussianBlur stdDeviation="25.0666"/>
<feColorMatrix type="matrix" values="0 0 0 0 0 0 0 0 0 0 0 0 0 0 0 0 0 0 0.201279 0"/>
<feBlend mode="normal" in2="effect4_dropShadow_620_5945" result="effect5_dropShadow_620_5945"/>
<feColorMatrix in="SourceAlpha" type="matrix" values="0 0 0 0 0 0 0 0 0 0 0 0 0 0 0 0 0 0 127 0" result="hardAlpha"/>
<feOffset dy="150"/>
<feGaussianBlur stdDeviation="60"/>
<feColorMatrix type="matrix" values="0 0 0 0 0 0 0 0 0 0 0 0 0 0 0 0 0 0 0.28 0"/>
<feBlend mode="normal" in2="effect5_dropShadow_620_5945" result="effect6_dropShadow_620_5945"/>
<feBlend mode="normal" in="SourceGraphic" in2="effect6_dropShadow_620_5945" result="shape"/>
<feGaussianBlur stdDeviation="4.4" result="effect7_foregroundBlur_620_5945"/>
</filter>
<filter id="filter1_dddddd_620_5945" x="637.89" y="285.298" width="234.393" height="234.393" filterUnits="userSpaceOnUse" color-interpolation-filters="sRGB">
<feFlood flood-opacity="0" result="BackgroundImageFix"/>
<feColorMatrix in="SourceAlpha" type="matrix" values="0 0 0 0 0 0 0 0 0 0 0 0 0 0 0 0 0 0 127 0" result="hardAlpha"/>
<feOffset dy="0.343372"/>
<feGaussianBlur stdDeviation="0.887045"/>
<feColorMatrix type="matrix" values="0 0 0 0 0.352941 0 0 0 0 0.403922 0 0 0 0 0.847059 0 0 0 0.0759093 0"/>
<feBlend mode="normal" in2="BackgroundImageFix" result="effect1_dropShadow_620_5945"/>
<feColorMatrix in="SourceAlpha" type="matrix" values="0 0 0 0 0 0 0 0 0 0 0 0 0 0 0 0 0 0 127 0" result="hardAlpha"/>
<feOffset dy="0.825171"/>
<feGaussianBlur stdDeviation="2.13169"/>
<feColorMatrix type="matrix" values="0 0 0 0 0.352941 0 0 0 0 0.403922 0 0 0 0 0.847059 0 0 0 0.109051 0"/>
<feBlend mode="normal" in2="effect1_dropShadow_620_5945" result="effect2_dropShadow_620_5945"/>
<feColorMatrix in="SourceAlpha" type="matrix" values="0 0 0 0 0 0 0 0 0 0 0 0 0 0 0 0 0 0 127 0" result="hardAlpha"/>
<feOffset dy="1.55372"/>
<feGaussianBlur stdDeviation="4.01379"/>
<feColorMatrix type="matrix" values="0 0 0 0 0.352941 0 0 0 0 0.403922 0 0 0 0 0.847059 0 0 0 0.135 0"/>
<feBlend mode="normal" in2="effect2_dropShadow_620_5945" result="effect3_dropShadow_620_5945"/>
<feColorMatrix in="SourceAlpha" type="matrix" values="0 0 0 0 0 0 0 0 0 0 0 0 0 0 0 0 0 0 127 0" result="hardAlpha"/>
<feOffset dy="2.77158"/>
<feGaussianBlur stdDeviation="7.15991"/>
<feColorMatrix type="matrix" values="0 0 0 0 0.352941 0 0 0 0 0.403922 0 0 0 0 0.847059 0 0 0 0.160949 0"/>
<feBlend mode="normal" in2="effect3_dropShadow_620_5945" result="effect4_dropShadow_620_5945"/>
<feColorMatrix in="SourceAlpha" type="matrix" values="0 0 0 0 0 0 0 0 0 0 0 0 0 0 0 0 0 0 127 0" result="hardAlpha"/>
<feOffset dy="5.18393"/>
<feGaussianBlur stdDeviation="13.3918"/>
<feColorMatrix type="matrix" values="0 0 0 0 0.352941 0 0 0 0 0.403922 0 0 0 0 0.847059 0 0 0 0.194091 0"/>
<feBlend mode="normal" in2="effect4_dropShadow_620_5945" result="effect5_dropShadow_620_5945"/>
<feColorMatrix in="SourceAlpha" type="matrix" values="0 0 0 0 0 0 0 0 0 0 0 0 0 0 0 0 0 0 127 0" result="hardAlpha"/>
<feOffset dy="12.4084"/>
<feGaussianBlur stdDeviation="32.055"/>
<feColorMatrix type="matrix" values="0 0 0 0 0.352941 0 0 0 0 0.403922 0 0 0 0 0.847059 0 0 0 0.27 0"/>
<feBlend mode="normal" in2="effect5_dropShadow_620_5945" result="effect6_dropShadow_620_5945"/>
<feBlend mode="normal" in="SourceGraphic" in2="effect6_dropShadow_620_5945" result="shape"/>
</filter>
<filter id="filter2_dddddd_620_5945" x="473" y="152" width="361.941" height="256.176" filterUnits="userSpaceOnUse" color-interpolation-filters="sRGB">
<feFlood flood-opacity="0" result="BackgroundImageFix"/>
<feColorMatrix in="SourceAlpha" type="matrix" values="0 0 0 0 0 0 0 0 0 0 0 0 0 0 0 0 0 0 127 0" result="hardAlpha"/>
<feOffset dy="2.76726"/>
<feGaussianBlur stdDeviation="1.1069"/>
<feColorMatrix type="matrix" values="0 0 0 0 0 0 0 0 0 0 0 0 0 0 0 0 0 0 0.098401 0"/>
<feBlend mode="normal" in2="BackgroundImageFix" result="effect1_dropShadow_620_5945"/>
<feColorMatrix in="SourceAlpha" type="matrix" values="0 0 0 0 0 0 0 0 0 0 0 0 0 0 0 0 0 0 127 0" result="hardAlpha"/>
<feOffset dy="6.6501"/>
<feGaussianBlur stdDeviation="2.66004"/>
<feColorMatrix type="matrix" values="0 0 0 0 0 0 0 0 0 0 0 0 0 0 0 0 0 0 0.141362 0"/>
<feBlend mode="normal" in2="effect1_dropShadow_620_5945" result="effect2_dropShadow_620_5945"/>
<feColorMatrix in="SourceAlpha" type="matrix" values="0 0 0 0 0 0 0 0 0 0 0 0 0 0 0 0 0 0 127 0" result="hardAlpha"/>
<feOffset dy="12.5216"/>
<feGaussianBlur stdDeviation="5.00862"/>
<feColorMatrix type="matrix" values="0 0 0 0 0 0 0 0 0 0 0 0 0 0 0 0 0 0 0.175 0"/>
<feBlend mode="normal" in2="effect2_dropShadow_620_5945" result="effect3_dropShadow_620_5945"/>
<feColorMatrix in="SourceAlpha" type="matrix" values="0 0 0 0 0 0 0 0 0 0 0 0 0 0 0 0 0 0 127 0" result="hardAlpha"/>
<feOffset dy="22.3363"/>
<feGaussianBlur stdDeviation="8.93452"/>
<feColorMatrix type="matrix" values="0 0 0 0 0 0 0 0 0 0 0 0 0 0 0 0 0 0 0.208638 0"/>
<feBlend mode="normal" in2="effect3_dropShadow_620_5945" result="effect4_dropShadow_620_5945"/>
<feColorMatrix in="SourceAlpha" type="matrix" values="0 0 0 0 0 0 0 0 0 0 0 0 0 0 0 0 0 0 127 0" result="hardAlpha"/>
<feOffset dy="41.7776"/>
<feGaussianBlur stdDeviation="16.711"/>
<feColorMatrix type="matrix" values="0 0 0 0 0 0 0 0 0 0 0 0 0 0 0 0 0 0 0.251599 0"/>
<feBlend mode="normal" in2="effect4_dropShadow_620_5945" result="effect5_dropShadow_620_5945"/>
<feColorMatrix in="SourceAlpha" type="matrix" values="0 0 0 0 0 0 0 0 0 0 0 0 0 0 0 0 0 0 127 0" result="hardAlpha"/>
<feOffset dy="100"/>
<feGaussianBlur stdDeviation="40"/>
<feColorMatrix type="matrix" values="0 0 0 0 0 0 0 0 0 0 0 0 0 0 0 0 0 0 0.35 0"/>
<feBlend mode="normal" in2="effect5_dropShadow_620_5945" result="effect6_dropShadow_620_5945"/>
<feBlend mode="normal" in="SourceGraphic" in2="effect6_dropShadow_620_5945" result="shape"/>
</filter>
<filter id="filter3_dddddd_620_5945" x="147" y="321" width="331.5" height="232.5" filterUnits="userSpaceOnUse" color-interpolation-filters="sRGB">
<feFlood flood-opacity="0" result="BackgroundImageFix"/>
<feColorMatrix in="SourceAlpha" type="matrix" values="0 0 0 0 0 0 0 0 0 0 0 0 0 0 0 0 0 0 127 0" result="hardAlpha"/>
<feOffset dy="2.76726"/>
<feGaussianBlur stdDeviation="1.1069"/>
<feColorMatrix type="matrix" values="0 0 0 0 0 0 0 0 0 0 0 0 0 0 0 0 0 0 0.140573 0"/>
<feBlend mode="normal" in2="BackgroundImageFix" result="effect1_dropShadow_620_5945"/>
<feColorMatrix in="SourceAlpha" type="matrix" values="0 0 0 0 0 0 0 0 0 0 0 0 0 0 0 0 0 0 127 0" result="hardAlpha"/>
<feOffset dy="6.6501"/>
<feGaussianBlur stdDeviation="2.66004"/>
<feColorMatrix type="matrix" values="0 0 0 0 0 0 0 0 0 0 0 0 0 0 0 0 0 0 0.201946 0"/>
<feBlend mode="normal" in2="effect1_dropShadow_620_5945" result="effect2_dropShadow_620_5945"/>
<feColorMatrix in="SourceAlpha" type="matrix" values="0 0 0 0 0 0 0 0 0 0 0 0 0 0 0 0 0 0 127 0" result="hardAlpha"/>
<feOffset dy="12.5216"/>
<feGaussianBlur stdDeviation="5.00862"/>
<feColorMatrix type="matrix" values="0 0 0 0 0 0 0 0 0 0 0 0 0 0 0 0 0 0 0.25 0"/>
<feBlend mode="normal" in2="effect2_dropShadow_620_5945" result="effect3_dropShadow_620_5945"/>
<feColorMatrix in="SourceAlpha" type="matrix" values="0 0 0 0 0 0 0 0 0 0 0 0 0 0 0 0 0 0 127 0" result="hardAlpha"/>
<feOffset dy="22.3363"/>
<feGaussianBlur stdDeviation="8.93452"/>
<feColorMatrix type="matrix" values="0 0 0 0 0 0 0 0 0 0 0 0 0 0 0 0 0 0 0.298054 0"/>
<feBlend mode="normal" in2="effect3_dropShadow_620_5945" result="effect4_dropShadow_620_5945"/>
<feColorMatrix in="SourceAlpha" type="matrix" values="0 0 0 0 0 0 0 0 0 0 0 0 0 0 0 0 0 0 127 0" result="hardAlpha"/>
<feOffset dy="41.7776"/>
<feGaussianBlur stdDeviation="16.711"/>
<feColorMatrix type="matrix" values="0 0 0 0 0 0 0 0 0 0 0 0 0 0 0 0 0 0 0.359427 0"/>
<feBlend mode="normal" in2="effect4_dropShadow_620_5945" result="effect5_dropShadow_620_5945"/>
<feColorMatrix in="SourceAlpha" type="matrix" values="0 0 0 0 0 0 0 0 0 0 0 0 0 0 0 0 0 0 127 0" result="hardAlpha"/>
<feOffset dy="100"/>
<feGaussianBlur stdDeviation="40"/>
<feColorMatrix type="matrix" values="0 0 0 0 0 0 0 0 0 0 0 0 0 0 0 0 0 0 0.5 0"/>
<feBlend mode="normal" in2="effect5_dropShadow_620_5945" result="effect6_dropShadow_620_5945"/>
<feBlend mode="normal" in="SourceGraphic" in2="effect6_dropShadow_620_5945" result="shape"/>
</filter>
<filter id="filter4_dddddd_620_5945" x="-146" y="-151" width="444" height="444.2" filterUnits="userSpaceOnUse" color-interpolation-filters="sRGB">
<feFlood flood-opacity="0" result="BackgroundImageFix"/>
<feColorMatrix in="SourceAlpha" type="matrix" values="0 0 0 0 0 0 0 0 0 0 0 0 0 0 0 0 0 0 127 0" result="hardAlpha"/>
<feOffset/>
<feGaussianBlur stdDeviation="2.90562"/>
<feColorMatrix type="matrix" values="0 0 0 0 0.0588235 0 0 0 0 0.901961 0 0 0 0 0.803922 0 0 0 0.281146 0"/>
<feBlend mode="normal" in2="BackgroundImageFix" result="effect1_dropShadow_620_5945"/>
<feColorMatrix in="SourceAlpha" type="matrix" values="0 0 0 0 0 0 0 0 0 0 0 0 0 0 0 0 0 0 127 0" result="hardAlpha"/>
<feOffset/>
<feGaussianBlur stdDeviation="6.98261"/>
<feColorMatrix type="matrix" values="0 0 0 0 0.0588235 0 0 0 0 0.901961 0 0 0 0 0.803922 0 0 0 0.403893 0"/>
<feBlend mode="normal" in2="effect1_dropShadow_620_5945" result="effect2_dropShadow_620_5945"/>
<feColorMatrix in="SourceAlpha" type="matrix" values="0 0 0 0 0 0 0 0 0 0 0 0 0 0 0 0 0 0 127 0" result="hardAlpha"/>
<feOffset/>
<feGaussianBlur stdDeviation="13.1476"/>
<feColorMatrix type="matrix" values="0 0 0 0 0.0588235 0 0 0 0 0.901961 0 0 0 0 0.803922 0 0 0 0.5 0"/>
<feBlend mode="normal" in2="effect2_dropShadow_620_5945" result="effect3_dropShadow_620_5945"/>
<feColorMatrix in="SourceAlpha" type="matrix" values="0 0 0 0 0 0 0 0 0 0 0 0 0 0 0 0 0 0 127 0" result="hardAlpha"/>
<feOffset/>
<feGaussianBlur stdDeviation="23.4531"/>
<feColorMatrix type="matrix" values="0 0 0 0 0.0588235 0 0 0 0 0.901961 0 0 0 0 0.803922 0 0 0 0.596107 0"/>
<feBlend mode="normal" in2="effect3_dropShadow_620_5945" result="effect4_dropShadow_620_5945"/>
<feColorMatrix in="SourceAlpha" type="matrix" values="0 0 0 0 0 0 0 0 0 0 0 0 0 0 0 0 0 0 127 0" result="hardAlpha"/>
<feOffset/>
<feGaussianBlur stdDeviation="43.8665"/>
<feColorMatrix type="matrix" values="0 0 0 0 0.0588235 0 0 0 0 0.901961 0 0 0 0 0.803922 0 0 0 0.718854 0"/>
<feBlend mode="normal" in2="effect4_dropShadow_620_5945" result="effect5_dropShadow_620_5945"/>
<feColorMatrix in="SourceAlpha" type="matrix" values="0 0 0 0 0 0 0 0 0 0 0 0 0 0 0 0 0 0 127 0" result="hardAlpha"/>
<feOffset/>
<feGaussianBlur stdDeviation="105"/>
<feColorMatrix type="matrix" values="0 0 0 0 0.0588235 0 0 0 0 0.901961 0 0 0 0 0.803922 0 0 0 1 0"/>
<feBlend mode="normal" in2="effect5_dropShadow_620_5945" result="effect6_dropShadow_620_5945"/>
<feBlend mode="normal" in="SourceGraphic" in2="effect6_dropShadow_620_5945" result="shape"/>
</filter>
<filter id="filter5_dddddd_620_5945" x="-86.7378" y="125.97" width="648.528" height="441.077" filterUnits="userSpaceOnUse" color-interpolation-filters="sRGB">
<feFlood flood-opacity="0" result="BackgroundImageFix"/>
<feColorMatrix in="SourceAlpha" type="matrix" values="0 0 0 0 0 0 0 0 0 0 0 0 0 0 0 0 0 0 127 0" result="hardAlpha"/>
<feOffset dy="4.74058"/>
<feGaussianBlur stdDeviation="1.89623"/>
<feColorMatrix type="matrix" values="0 0 0 0 0 0 0 0 0 0 0 0 0 0 0 0 0 0 0.163064 0"/>
<feBlend mode="normal" in2="BackgroundImageFix" result="effect1_dropShadow_620_5945"/>
<feColorMatrix in="SourceAlpha" type="matrix" values="0 0 0 0 0 0 0 0 0 0 0 0 0 0 0 0 0 0 127 0" result="hardAlpha"/>
<feOffset dy="11.3923"/>
<feGaussianBlur stdDeviation="4.55691"/>
<feColorMatrix type="matrix" values="0 0 0 0 0 0 0 0 0 0 0 0 0 0 0 0 0 0 0.234258 0"/>
<feBlend mode="normal" in2="effect1_dropShadow_620_5945" result="effect2_dropShadow_620_5945"/>
<feColorMatrix in="SourceAlpha" type="matrix" values="0 0 0 0 0 0 0 0 0 0 0 0 0 0 0 0 0 0 127 0" result="hardAlpha"/>
<feOffset dy="21.4507"/>
<feGaussianBlur stdDeviation="8.58026"/>
<feColorMatrix type="matrix" values="0 0 0 0 0 0 0 0 0 0 0 0 0 0 0 0 0 0 0.29 0"/>
<feBlend mode="normal" in2="effect2_dropShadow_620_5945" result="effect3_dropShadow_620_5945"/>
<feColorMatrix in="SourceAlpha" type="matrix" values="0 0 0 0 0 0 0 0 0 0 0 0 0 0 0 0 0 0 127 0" result="hardAlpha"/>
<feOffset dy="38.2643"/>
<feGaussianBlur stdDeviation="15.3057"/>
<feColorMatrix type="matrix" values="0 0 0 0 0 0 0 0 0 0 0 0 0 0 0 0 0 0 0.345742 0"/>
<feBlend mode="normal" in2="effect3_dropShadow_620_5945" result="effect4_dropShadow_620_5945"/>
<feColorMatrix in="SourceAlpha" type="matrix" values="0 0 0 0 0 0 0 0 0 0 0 0 0 0 0 0 0 0 127 0" result="hardAlpha"/>
<feOffset dy="71.5692"/>
<feGaussianBlur stdDeviation="28.6277"/>
<feColorMatrix type="matrix" values="0 0 0 0 0 0 0 0 0 0 0 0 0 0 0 0 0 0 0.416936 0"/>
<feBlend mode="normal" in2="effect4_dropShadow_620_5945" result="effect5_dropShadow_620_5945"/>
<feColorMatrix in="SourceAlpha" type="matrix" values="0 0 0 0 0 0 0 0 0 0 0 0 0 0 0 0 0 0 127 0" result="hardAlpha"/>
<feOffset dy="171.31"/>
<feGaussianBlur stdDeviation="68.5239"/>
<feColorMatrix type="matrix" values="0 0 0 0 0 0 0 0 0 0 0 0 0 0 0 0 0 0 0.58 0"/>
<feBlend mode="normal" in2="effect5_dropShadow_620_5945" result="effect6_dropShadow_620_5945"/>
<feBlend mode="normal" in="SourceGraphic" in2="effect6_dropShadow_620_5945" result="shape"/>
</filter>
<linearGradient id="paint0_linear_620_5945" x1="422" y1="0" x2="422" y2="474" gradientUnits="userSpaceOnUse">
<stop stop-color="#042F2E"/>
<stop offset="1" stop-color="#030712"/>
</linearGradient>
<clipPath id="clip0_620_5945">
<rect width="844" height="474" fill="white"/>
</clipPath>
<clipPath id="clip1_620_5945">
<rect x="48" y="50" width="253" height="42" rx="21" fill="white"/>
</clipPath>
</defs>
</svg>
