<svg xmlns="http://www.w3.org/2000/svg" viewBox="0 0 720 452" width="720" height="452" role="img" aria-label="Latency stays low, then climbs as each setup saturates"><rect x="0.5" y="0.5" width="719" height="451" rx="12" fill="#ffffff" stroke="hsl(220 14% 91%)"/><text x="62" y="32" font-family="Inter, ui-sans-serif, system-ui, -apple-system, sans-serif" font-size="16" font-weight="600" fill="hsl(220 25% 9%)">Latency stays low, then climbs as each setup saturates</text><text x="62" y="52" font-family="Inter, ui-sans-serif, system-ui, -apple-system, sans-serif" font-size="12.5" font-weight="400" fill="hsl(220 9% 46%)">p95 latency (ms) over the load test — Prisma 7 degrades early; Prisma Next holds out far longer</text><line x1="62" y1="74" x2="80" y2="74" stroke="hsl(244 58% 51%)" stroke-width="2.5"  stroke-linecap="round"/><text x="88" y="78" font-family="Inter, ui-sans-serif, system-ui, -apple-system, sans-serif" font-size="12.5" font-weight="500" fill="hsl(220 25% 9%)">Prisma Next</text><line x1="183.7" y1="74" x2="201.7" y2="74" stroke="hsl(220 9% 46%)" stroke-width="2"  stroke-linecap="round"/><text x="209.7" y="78" font-family="Inter, ui-sans-serif, system-ui, -apple-system, sans-serif" font-size="12.5" font-weight="500" fill="hsl(220 25% 9%)">Prisma 7</text><line x1="285.29999999999995" y1="74" x2="303.29999999999995" y2="74" stroke="hsl(199 89% 48%)" stroke-width="2" stroke-dasharray="5 4" stroke-linecap="round"/><text x="311.29999999999995" y="78" font-family="Inter, ui-sans-serif, system-ui, -apple-system, sans-serif" font-size="12.5" font-weight="500" fill="hsl(220 25% 9%)">pg (raw driver)</text><line x1="62" y1="396.0" x2="694" y2="396.0" stroke="hsl(220 14% 91%)" stroke-width="1"/><text x="52" y="400.0" text-anchor="end" font-family="Inter, ui-sans-serif, system-ui, -apple-system, sans-serif" font-size="11.5" fill="hsl(220 9% 46%)">0</text><line x1="62" y1="321.5" x2="694" y2="321.5" stroke="hsl(220 14% 91%)" stroke-width="1"/><text x="52" y="325.5" text-anchor="end" font-family="Inter, ui-sans-serif, system-ui, -apple-system, sans-serif" font-size="11.5" fill="hsl(220 9% 46%)">110</text><line x1="62" y1="247.0" x2="694" y2="247.0" stroke="hsl(220 14% 91%)" stroke-width="1"/><text x="52" y="251.0" text-anchor="end" font-family="Inter, ui-sans-serif, system-ui, -apple-system, sans-serif" font-size="11.5" fill="hsl(220 9% 46%)">220</text><line x1="62" y1="172.5" x2="694" y2="172.5" stroke="hsl(220 14% 91%)" stroke-width="1"/><text x="52" y="176.5" text-anchor="end" font-family="Inter, ui-sans-serif, system-ui, -apple-system, sans-serif" font-size="11.5" fill="hsl(220 9% 46%)">330</text><line x1="62" y1="98.0" x2="694" y2="98.0" stroke="hsl(220 14% 91%)" stroke-width="1"/><text x="52" y="102.0" text-anchor="end" font-family="Inter, ui-sans-serif, system-ui, -apple-system, sans-serif" font-size="11.5" fill="hsl(220 9% 46%)">440</text><line x1="62.0" y1="396" x2="62.0" y2="401" stroke="hsl(220 14% 83%)" stroke-width="1"/><text x="62.0" y="416" text-anchor="middle" font-family="Inter, ui-sans-serif, system-ui, -apple-system, sans-serif" font-size="11.5" fill="hsl(220 9% 46%)">0s</text><line x1="173.5" y1="396" x2="173.5" y2="401" stroke="hsl(220 14% 83%)" stroke-width="1"/><text x="173.5" y="416" text-anchor="middle" font-family="Inter, ui-sans-serif, system-ui, -apple-system, sans-serif" font-size="11.5" fill="hsl(220 9% 46%)">60s</text><line x1="285.1" y1="396" x2="285.1" y2="401" stroke="hsl(220 14% 83%)" stroke-width="1"/><text x="285.1" y="416" text-anchor="middle" font-family="Inter, ui-sans-serif, system-ui, -apple-system, sans-serif" font-size="11.5" fill="hsl(220 9% 46%)">120s</text><line x1="396.6" y1="396" x2="396.6" y2="401" stroke="hsl(220 14% 83%)" stroke-width="1"/><text x="396.6" y="416" text-anchor="middle" font-family="Inter, ui-sans-serif, system-ui, -apple-system, sans-serif" font-size="11.5" fill="hsl(220 9% 46%)">180s</text><line x1="508.1" y1="396" x2="508.1" y2="401" stroke="hsl(220 14% 83%)" stroke-width="1"/><text x="508.1" y="416" text-anchor="middle" font-family="Inter, ui-sans-serif, system-ui, -apple-system, sans-serif" font-size="11.5" fill="hsl(220 9% 46%)">240s</text><line x1="619.6" y1="396" x2="619.6" y2="401" stroke="hsl(220 14% 83%)" stroke-width="1"/><text x="619.6" y="416" text-anchor="middle" font-family="Inter, ui-sans-serif, system-ui, -apple-system, sans-serif" font-size="11.5" fill="hsl(220 9% 46%)">300s</text><line x1="62" y1="396" x2="694" y2="396" stroke="hsl(220 14% 83%)" stroke-width="1"/><text x="378" y="438" text-anchor="middle" font-family="Inter, ui-sans-serif, system-ui, -apple-system, sans-serif" font-size="12" font-weight="500" fill="hsl(220 9% 46%)">Time into load test  ·  y-axis: p95 latency (ms)</text><polyline points="71.3,394.4 88.0,394.8 106.6,394.9 125.2,394.8 143.8,394.6 162.4,394.4 181.0,394.1 199.6,394.2 218.1,392.5 236.7,391.9 255.3,389.8 273.9,386.7 292.5,375.5 311.1,363.9 329.7,341.8 348.3,335.9 366.8,296.7 385.4,277.4 402.2,260.5 420.8,255.2 439.3,256.6 457.9,232.5 476.5,220.5 495.1,199.8 513.7,182.3 532.3,185.9 550.9,174.7 569.5,178.7 588.0,161.9 606.6,129.1 625.2,123.1 643.8,125.0 662.4,140.6 681.0,125.2" fill="none" stroke="hsl(220 9% 46%)" stroke-width="2"  stroke-linejoin="round" stroke-linecap="round"/><circle cx="681.0" cy="125.2" r="3" fill="hsl(220 9% 46%)"/><polyline points="71.3,394.0 88.0,393.5 106.6,395.1 125.2,395.3 143.8,395.3 162.4,395.3 181.0,395.2 199.6,395.3 218.1,395.3 236.7,395.2 255.3,394.9 273.9,394.8 292.5,394.1 311.1,394.4 329.7,393.4 348.3,393.2 366.8,392.5 385.4,392.4 402.2,390.6 420.8,391.1 439.3,386.5 457.9,379.2 476.5,379.9 495.1,351.7 513.7,367.1 532.3,353.1 550.9,340.9 569.5,312.9 588.0,315.7 606.6,312.0 625.2,319.6 643.8,308.5 662.4,332.7 681.0,312.4" fill="none" stroke="hsl(199 89% 48%)" stroke-width="2" stroke-dasharray="5 4" stroke-linejoin="round" stroke-linecap="round"/><circle cx="681.0" cy="312.4" r="3" fill="hsl(199 89% 48%)"/><polyline points="71.3,393.8 88.0,393.5 106.6,395.2 125.2,395.1 143.8,395.1 162.4,395.1 181.0,395.2 199.6,395.2 218.1,395.1 236.7,394.8 255.3,394.3 273.9,393.9 292.5,393.1 311.1,393.2 329.7,390.9 348.3,389.3 366.8,389.7 385.4,387.1 402.2,381.4 420.8,379.1 439.3,356.0 457.9,354.7 476.5,329.2 495.1,335.8 513.7,323.9 532.3,265.8 550.9,290.0 569.5,272.5 588.0,258.9 606.6,251.9 625.2,244.3 643.8,252.2 662.4,252.2 681.0,255.0" fill="none" stroke="hsl(244 58% 51%)" stroke-width="2.5"  stroke-linejoin="round" stroke-linecap="round"/><circle cx="681.0" cy="255.0" r="3" fill="hsl(244 58% 51%)"/></svg>
