<svg xmlns="http://www.w3.org/2000/svg" viewBox="0 0 720 452" width="720" height="452" role="img" aria-label="Throughput climbs until each setup hits its ceiling"><rect x="0.5" y="0.5" width="719" height="451" rx="12" fill="#ffffff" stroke="hsl(220 14% 91%)"/><text x="62" y="32" font-family="Inter, ui-sans-serif, system-ui, -apple-system, sans-serif" font-size="16" font-weight="600" fill="hsl(220 25% 9%)">Throughput climbs until each setup hits its ceiling</text><text x="62" y="52" font-family="Inter, ui-sans-serif, system-ui, -apple-system, sans-serif" font-size="12.5" font-weight="400" fill="hsl(220 9% 46%)">Requests per second as load ramps up — Prisma 7 plateaus while Prisma Next keeps scaling</text><line x1="62" y1="74" x2="80" y2="74" stroke="hsl(244 58% 51%)" stroke-width="2.5"  stroke-linecap="round"/><text x="88" y="78" font-family="Inter, ui-sans-serif, system-ui, -apple-system, sans-serif" font-size="12.5" font-weight="500" fill="hsl(220 25% 9%)">Prisma Next</text><line x1="183.7" y1="74" x2="201.7" y2="74" stroke="hsl(220 9% 46%)" stroke-width="2"  stroke-linecap="round"/><text x="209.7" y="78" font-family="Inter, ui-sans-serif, system-ui, -apple-system, sans-serif" font-size="12.5" font-weight="500" fill="hsl(220 25% 9%)">Prisma 7</text><line x1="285.29999999999995" y1="74" x2="303.29999999999995" y2="74" stroke="hsl(199 89% 48%)" stroke-width="2" stroke-dasharray="5 4" stroke-linecap="round"/><text x="311.29999999999995" y="78" font-family="Inter, ui-sans-serif, system-ui, -apple-system, sans-serif" font-size="12.5" font-weight="500" fill="hsl(220 25% 9%)">pg (raw driver)</text><line x1="62" y1="396.0" x2="694" y2="396.0" stroke="hsl(220 14% 91%)" stroke-width="1"/><text x="52" y="400.0" text-anchor="end" font-family="Inter, ui-sans-serif, system-ui, -apple-system, sans-serif" font-size="11.5" fill="hsl(220 9% 46%)">0</text><line x1="62" y1="336.4" x2="694" y2="336.4" stroke="hsl(220 14% 91%)" stroke-width="1"/><text x="52" y="340.4" text-anchor="end" font-family="Inter, ui-sans-serif, system-ui, -apple-system, sans-serif" font-size="11.5" fill="hsl(220 9% 46%)">3k</text><line x1="62" y1="276.8" x2="694" y2="276.8" stroke="hsl(220 14% 91%)" stroke-width="1"/><text x="52" y="280.8" text-anchor="end" font-family="Inter, ui-sans-serif, system-ui, -apple-system, sans-serif" font-size="11.5" fill="hsl(220 9% 46%)">6k</text><line x1="62" y1="217.2" x2="694" y2="217.2" stroke="hsl(220 14% 91%)" stroke-width="1"/><text x="52" y="221.2" text-anchor="end" font-family="Inter, ui-sans-serif, system-ui, -apple-system, sans-serif" font-size="11.5" fill="hsl(220 9% 46%)">9k</text><line x1="62" y1="157.6" x2="694" y2="157.6" stroke="hsl(220 14% 91%)" stroke-width="1"/><text x="52" y="161.6" text-anchor="end" font-family="Inter, ui-sans-serif, system-ui, -apple-system, sans-serif" font-size="11.5" fill="hsl(220 9% 46%)">12k</text><line x1="62" y1="98.0" x2="694" y2="98.0" stroke="hsl(220 14% 91%)" stroke-width="1"/><text x="52" y="102.0" text-anchor="end" font-family="Inter, ui-sans-serif, system-ui, -apple-system, sans-serif" font-size="11.5" fill="hsl(220 9% 46%)">15k</text><line x1="62.0" y1="396" x2="62.0" y2="401" stroke="hsl(220 14% 83%)" stroke-width="1"/><text x="62.0" y="416" text-anchor="middle" font-family="Inter, ui-sans-serif, system-ui, -apple-system, sans-serif" font-size="11.5" fill="hsl(220 9% 46%)">0s</text><line x1="173.5" y1="396" x2="173.5" y2="401" stroke="hsl(220 14% 83%)" stroke-width="1"/><text x="173.5" y="416" text-anchor="middle" font-family="Inter, ui-sans-serif, system-ui, -apple-system, sans-serif" font-size="11.5" fill="hsl(220 9% 46%)">60s</text><line x1="285.1" y1="396" x2="285.1" y2="401" stroke="hsl(220 14% 83%)" stroke-width="1"/><text x="285.1" y="416" text-anchor="middle" font-family="Inter, ui-sans-serif, system-ui, -apple-system, sans-serif" font-size="11.5" fill="hsl(220 9% 46%)">120s</text><line x1="396.6" y1="396" x2="396.6" y2="401" stroke="hsl(220 14% 83%)" stroke-width="1"/><text x="396.6" y="416" text-anchor="middle" font-family="Inter, ui-sans-serif, system-ui, -apple-system, sans-serif" font-size="11.5" fill="hsl(220 9% 46%)">180s</text><line x1="508.1" y1="396" x2="508.1" y2="401" stroke="hsl(220 14% 83%)" stroke-width="1"/><text x="508.1" y="416" text-anchor="middle" font-family="Inter, ui-sans-serif, system-ui, -apple-system, sans-serif" font-size="11.5" fill="hsl(220 9% 46%)">240s</text><line x1="619.6" y1="396" x2="619.6" y2="401" stroke="hsl(220 14% 83%)" stroke-width="1"/><text x="619.6" y="416" text-anchor="middle" font-family="Inter, ui-sans-serif, system-ui, -apple-system, sans-serif" font-size="11.5" fill="hsl(220 9% 46%)">300s</text><line x1="62" y1="396" x2="694" y2="396" stroke="hsl(220 14% 83%)" stroke-width="1"/><text x="378" y="438" text-anchor="middle" font-family="Inter, ui-sans-serif, system-ui, -apple-system, sans-serif" font-size="12" font-weight="500" fill="hsl(220 9% 46%)">Time into load test</text><line x1="62" y1="231.9" x2="694" y2="231.9" stroke="hsl(220 9% 46%)" stroke-width="1" stroke-dasharray="2 4" opacity="0.6"/><text x="690" y="224.9" text-anchor="end" font-family="Inter, ui-sans-serif, system-ui, -apple-system, sans-serif" font-size="11" font-weight="500" fill="hsl(220 9% 46%)">Prisma 7 ceiling ~8,300 req/s</text><polygon points="71.3,396.0 71.3,380.6 88.0,375.0 106.6,360.9 125.2,353.9 143.8,339.9 162.4,332.7 181.0,318.8 199.6,311.6 218.1,297.7 236.7,290.6 255.3,276.8 273.9,269.8 292.5,256.0 311.1,248.5 329.7,236.0 348.3,230.0 366.8,215.2 385.4,209.5 402.2,201.8 420.8,197.9 439.3,186.5 457.9,180.0 476.5,173.4 495.1,166.3 513.7,162.5 532.3,173.8 550.9,154.9 569.5,159.0 588.0,157.7 606.6,155.7 625.2,160.5 643.8,152.7 662.4,152.5 681.0,156.9 681.0,396.0" fill="hsl(244 58% 51%)" fill-opacity="0.07"/><polyline points="71.3,380.7 88.0,375.0 106.6,361.2 125.2,353.9 143.8,340.2 162.4,332.9 181.0,319.2 199.6,312.1 218.1,298.2 236.7,291.3 255.3,278.4 273.9,272.9 292.5,262.1 311.1,257.9 329.7,249.6 348.3,246.3 366.8,246.2 385.4,243.3 402.2,241.3 420.8,241.2 439.3,240.3 457.9,239.9 476.5,240.5 495.1,240.8 513.7,240.0 532.3,240.0 550.9,240.4 569.5,239.7 588.0,241.0 606.6,240.1 625.2,239.4 643.8,239.9 662.4,241.5 681.0,240.6" fill="none" stroke="hsl(220 9% 46%)" stroke-width="2"  stroke-linejoin="round" stroke-linecap="round"/><circle cx="681.0" cy="240.6" r="3" fill="hsl(220 9% 46%)"/><polyline points="71.3,380.7 88.0,375.0 106.6,361.1 125.2,353.8 143.8,339.9 162.4,332.7 181.0,319.0 199.6,311.4 218.1,297.8 236.7,290.4 255.3,276.6 273.9,269.4 292.5,255.7 311.1,248.4 329.7,234.7 348.3,227.6 366.8,214.1 385.4,206.9 402.2,196.8 420.8,186.8 439.3,180.1 457.9,171.7 476.5,158.8 495.1,156.2 513.7,144.6 532.3,138.9 550.9,132.5 569.5,130.1 588.0,122.2 606.6,119.6 625.2,114.9 643.8,117.4 662.4,112.9 681.0,115.0" fill="none" stroke="hsl(199 89% 48%)" stroke-width="2" stroke-dasharray="5 4" stroke-linejoin="round" stroke-linecap="round"/><circle cx="681.0" cy="115.0" r="3" fill="hsl(199 89% 48%)"/><polyline points="71.3,380.6 88.0,375.0 106.6,360.9 125.2,353.9 143.8,339.9 162.4,332.7 181.0,318.8 199.6,311.6 218.1,297.7 236.7,290.6 255.3,276.8 273.9,269.8 292.5,256.0 311.1,248.5 329.7,236.0 348.3,230.0 366.8,215.2 385.4,209.5 402.2,201.8 420.8,197.9 439.3,186.5 457.9,180.0 476.5,173.4 495.1,166.3 513.7,162.5 532.3,173.8 550.9,154.9 569.5,159.0 588.0,157.7 606.6,155.7 625.2,160.5 643.8,152.7 662.4,152.5 681.0,156.9" fill="none" stroke="hsl(244 58% 51%)" stroke-width="2.5"  stroke-linejoin="round" stroke-linecap="round"/><circle cx="681.0" cy="156.9" r="3" fill="hsl(244 58% 51%)"/></svg>
