<svg width="547" height="284" viewBox="0 0 547 284" fill="none" xmlns="http://www.w3.org/2000/svg">
<path opacity="0.6" d="M470.008 -7.16211C477.879 -11.6142 487.314 -11.6104 494.909 -7.16602L494.911 -7.16406L682.338 101.461V101.462L682.35 101.468C687.884 104.481 687.883 112.522 682.35 115.535L682.34 115.541L504.272 217.76C490.788 225.414 474.401 225.412 461.188 217.763L461.188 217.762L288.466 118.211H288.467C280.511 113.599 280.511 102.07 288.467 97.458L288.466 97.457L470.008 -7.16211Z" stroke="#99F6E4"/>
<path opacity="0.4" d="M466.007 -38.2383C476.056 -43.9243 488.105 -43.9186 497.805 -38.2393L497.807 -38.2383L736.14 99.9707V99.9717L736.151 99.9775C743.283 103.863 743.283 114.231 736.151 118.116L736.142 118.121L509.71 248.18C492.522 257.941 471.632 257.939 454.789 248.182L454.788 248.181L235.154 121.518H235.153C224.948 115.597 224.949 100.797 235.155 94.8779L235.154 94.877L466.008 -38.2373L466.007 -38.2383Z" stroke="#99F6E4"/>
<path opacity="0.3" d="M460.476 -80.9639C473.535 -88.3488 489.196 -88.3431 501.806 -80.9648L501.808 -80.9639L810.483 97.9229L810.495 97.9287C819.835 103.014 819.835 116.579 810.495 121.664L810.485 121.669L517.224 290.006C494.918 302.666 467.807 302.663 445.946 290.008L445.945 290.007L161.487 126.065H161.488C148.171 118.347 148.17 99.0484 161.486 91.3291L161.487 91.3301L460.477 -80.9629L460.476 -80.9639Z" stroke="#99F6E4"/>
<path opacity="0.2" d="M453.049 -138.252C470.149 -147.917 490.659 -147.913 507.176 -138.256L507.178 -138.255L910.262 95.1748L910.513 94.7422L910.262 95.1758L910.273 95.1816C922.576 101.875 922.575 119.728 910.273 126.421L910.264 126.427L527.308 346.091C498.133 362.638 462.671 362.635 434.077 346.093L434.076 346.092L62.6182 132.163H62.6191C45.1269 122.032 45.1269 96.7034 62.6191 86.5723L62.6182 86.5713L453.049 -138.252Z" stroke="#99F6E4"/>
<path opacity="0.1" d="M443.517 -212.054C465.805 -224.652 492.541 -224.646 514.073 -212.055L514.075 -212.054L1038.41 91.6367L1038.42 91.6426C1054.53 100.407 1054.53 123.785 1038.42 132.55L1038.41 132.556L540.258 418.336C502.262 439.889 456.077 439.886 418.835 418.338H418.834L-64.3604 140.018H-64.3594C-87.2131 126.779 -87.2143 93.6823 -64.3613 80.4434L-64.3604 80.4443L443.517 -212.054Z" stroke="#99F6E4"/>
<g filter="url(#filter0_d_4467_11739)">
<path d="M631.826 112.003C631.826 110.188 631.826 106.962 631.826 104.945C632.231 102.526 631.219 99.7025 628.79 98.291L618.062 92.2417L488.927 17.6335C483.057 14.2055 475.973 14.2055 470.103 17.6335L334.693 95.468C331.05 97.4844 329.633 101.316 330.038 104.945V110.995C330.038 115.062 331.05 118.455 334.693 120.472L463.424 194.677C473.544 200.524 485.891 200.524 495.809 194.677L628.588 118.455C630.612 117.246 631.624 115.431 631.826 113.414C631.826 113.011 631.826 112.608 631.826 112.204V112.003Z" fill="#99F6E4"/>
</g>
<path d="M469.959 14.6978C475.809 11.3829 482.819 11.3869 488.46 14.6938L488.462 14.6948L628.662 96.0952L629.015 96.3003L629.286 95.9946L631.612 93.3774V101.834C631.422 103.675 630.508 105.319 628.663 106.429L495.464 183.029L495.462 183.03C485.617 188.74 473.408 188.74 463.563 183.03H463.562L334.362 108.429L334.355 108.425C330.993 106.557 330.013 102.993 330.013 99.4624V93.7319L331.116 95.1675L331.464 95.6187L331.866 95.2163C332.673 94.4098 333.43 93.6536 334.369 93.0903L469.958 14.6968L469.959 14.6978Z" fill="#F0FDFA" stroke="#0D9488"/>
<path d="M469.959 4.69775C475.809 1.3829 482.819 1.38689 488.46 4.69385L488.462 4.69482L628.662 86.0952L629.015 86.3003L629.286 85.9946L631.612 83.3774V91.8345C631.422 93.6747 630.508 95.3194 628.663 96.4292L495.464 173.029L495.462 173.03C485.617 178.74 473.408 178.74 463.563 173.03H463.562L334.362 98.4292L334.355 98.4253C330.993 96.557 330.013 92.9928 330.013 89.4624V83.7319L331.116 85.1675L331.464 85.6187L331.866 85.2163C332.673 84.4098 333.43 83.6536 334.369 83.0903L469.958 4.69678L469.959 4.69775Z" fill="#F0FDFA" stroke="#0D9488"/>
<path d="M469.959 -5.30225C475.809 -8.6171 482.819 -8.61311 488.46 -5.30615L488.462 -5.30518L628.662 76.0952L629.015 76.3003L629.286 75.9946L631.612 73.3774V81.8345C631.422 83.6747 630.508 85.3194 628.663 86.4292L495.464 163.029L495.462 163.03C485.617 168.74 473.408 168.74 463.563 163.03H463.562L334.362 88.4292L334.355 88.4253C330.993 86.557 330.013 82.9928 330.013 79.4624V73.7319L331.116 75.1675L331.464 75.6187L331.866 75.2163C332.673 74.4098 333.43 73.6536 334.369 73.0903L469.958 -5.30322L469.959 -5.30225Z" fill="#F0FDFA" stroke="#0D9488"/>
<path d="M469.959 -15.3022C475.809 -18.6171 482.819 -18.6131 488.46 -15.3062L488.462 -15.3052L628.662 66.0952L629.015 66.3003L629.286 65.9946L631.612 63.3774V71.8345C631.422 73.6747 630.508 75.3194 628.663 76.4292L495.464 153.029L495.462 153.03C485.617 158.74 473.408 158.74 463.563 153.03H463.562L334.362 78.4292L334.355 78.4253C330.993 76.557 330.013 72.9928 330.013 69.4624V63.7319L331.116 65.1675L331.464 65.6187L331.866 65.2163C332.673 64.4098 333.43 63.6536 334.369 63.0903L469.958 -15.3032L469.959 -15.3022Z" fill="#F0FDFA" stroke="#0D9488"/>
<path d="M469.962 -24.7051C475.811 -28.0181 482.82 -28.0124 488.46 -24.7061L488.462 -24.7051L628.661 56.6943V56.6953L628.673 56.7012C632.662 58.8771 632.725 64.6292 628.86 66.917L628.673 67.0234L628.663 67.0293L495.466 143.628C485.418 149.342 473.207 149.339 463.363 143.63H463.362L334.162 69.0293C328.296 65.6215 328.296 57.1014 334.163 53.6943L469.962 -24.7051Z" fill="#F0FDFA" stroke="#0D9488"/>
<path d="M410.913 62.2625L470.913 97.0625C475.513 99.8625 481.313 99.8625 486.113 97.0625L548.113 61.4625C550.113 60.2625 550.113 57.4625 548.113 56.2625L482.913 18.4625C480.113 16.8625 476.913 16.8625 474.113 18.4625L410.913 54.8624C407.913 56.4624 407.913 60.6625 410.913 62.4625V62.2625Z" fill="#020202"/>
<path d="M402.313 78.8626C402.313 80.0626 400.113 81.2627 397.513 81.2627C394.913 81.2627 392.713 80.2626 392.713 78.8626C392.713 77.4626 394.913 76.4626 397.513 76.4626C400.113 76.4626 402.313 77.4626 402.313 78.8626Z" stroke="#0D9488" stroke-miterlimit="10"/>
<path d="M412.313 90.8626C412.313 92.0626 410.113 93.2627 407.513 93.2627C404.913 93.2627 402.713 92.2626 402.713 90.8626C402.713 89.4626 404.913 88.4626 407.513 88.4626C410.113 88.4626 412.313 89.4626 412.313 90.8626Z" stroke="#0D9488" stroke-miterlimit="10"/>
<path d="M374.513 92.2626L394.713 80.6626" stroke="#0D9488" stroke-miterlimit="10" stroke-linecap="round"/>
<path d="M389.513 100.863L404.113 92.4626" stroke="#0D9488" stroke-miterlimit="10" stroke-linecap="round"/>
<path d="M432.113 94.8626C432.113 96.0626 429.913 97.2627 427.313 97.2627C424.713 97.2627 422.513 96.2626 422.513 94.8626C422.513 93.4626 424.713 92.4626 427.313 92.4626C429.913 92.4626 432.113 93.4626 432.113 94.8626Z" stroke="#0D9488" stroke-miterlimit="10"/>
<path d="M441.912 106.863C441.912 108.063 439.712 109.263 437.112 109.263C434.512 109.263 432.312 108.263 432.312 106.863C432.312 105.463 434.512 104.463 437.112 104.463C439.712 104.463 441.912 105.463 441.912 106.863Z" stroke="#0D9488" stroke-miterlimit="10"/>
<path d="M404.112 108.263L424.312 96.6626" stroke="#0D9488" stroke-miterlimit="10" stroke-linecap="round"/>
<path d="M419.312 116.863L433.713 108.463" stroke="#0D9488" stroke-miterlimit="10" stroke-linecap="round"/>
<path d="M514.113 14.4625C514.113 15.6625 511.913 16.8625 509.313 16.8625C506.713 16.8625 504.513 15.8625 504.513 14.4625C504.513 13.0625 506.713 12.0625 509.313 12.0625C511.913 12.0625 514.113 13.0625 514.113 14.4625Z" stroke="#0D9488" stroke-miterlimit="10"/>
<path d="M534.913 20.0626C534.913 21.2626 532.713 22.4626 530.113 22.4626C527.513 22.4626 525.312 21.4626 525.312 20.0626C525.312 18.6626 527.513 17.6626 530.113 17.6626C532.713 17.6626 534.913 18.6626 534.913 20.0626Z" stroke="#0D9488" stroke-miterlimit="10"/>
<path d="M511.913 12.4625L532.113 1.0625" stroke="#0D9488" stroke-miterlimit="10" stroke-linecap="round"/>
<path d="M532.713 17.8626L547.313 9.6626" stroke="#0D9488" stroke-miterlimit="10" stroke-linecap="round"/>
<path d="M537.912 33.4626C540.563 33.4626 542.712 32.3881 542.712 31.0626C542.712 29.7371 540.563 28.6626 537.912 28.6626C535.261 28.6626 533.112 29.7371 533.112 31.0626C533.112 32.3881 535.261 33.4626 537.912 33.4626Z" stroke="#0D9488" stroke-miterlimit="10"/>
<path d="M540.513 29.2626L560.713 17.6626" stroke="#0D9488" stroke-miterlimit="10" stroke-linecap="round"/>
<path d="M474.361 18.8943C477.006 17.3835 480.017 17.384 482.662 18.8943V18.8953L547.861 56.6951C549.529 57.7013 549.53 60.0219 547.863 61.0291L485.863 96.6287L485.86 96.6306C481.213 99.3416 475.61 99.3361 471.173 96.6355L471.163 96.6296L411.395 62.0339C410.04 61.2214 409.324 59.8756 409.274 58.5681C409.225 57.2681 409.831 56.0058 411.147 55.3035L411.155 55.2996L411.162 55.2957L474.362 18.8953L474.361 18.8943Z" fill="#CCFBF1" stroke="#0D9488"/>
<g filter="url(#filter1_d_4467_11739)">
<path d="M461.183 44.5761C459.154 44.2476 457.287 45.3268 457.855 46.4998L461.995 55.7431L477.172 46.969L461.183 44.5761ZM466.378 65.2209L493.567 49.5027L479.201 47.2974L462.563 56.9161L466.378 65.2209ZM466.865 66.4408L470.03 73.2442C470.517 74.4641 473.114 74.8395 474.575 73.9949L508.745 54.2416C510.206 53.397 509.557 51.8956 507.446 51.6141L495.678 49.7842L466.865 66.4408ZM456.07 46.7813C455.177 44.8576 458.342 43.0277 461.67 43.5438L507.933 50.5818C511.423 51.098 512.479 53.5847 510.044 54.9923L475.874 74.7457C473.439 76.1533 469.137 75.5433 468.244 73.5257L456.07 46.7813Z" fill="#0D9488"/>
</g>
<defs>
<filter id="filter0_d_4467_11739" x="309.971" y="15.0625" width="341.942" height="224" filterUnits="userSpaceOnUse" color-interpolation-filters="sRGB">
<feFlood flood-opacity="0" result="BackgroundImageFix"/>
<feColorMatrix in="SourceAlpha" type="matrix" values="0 0 0 0 0 0 0 0 0 0 0 0 0 0 0 0 0 0 127 0" result="hardAlpha"/>
<feMorphology radius="10" operator="erode" in="SourceAlpha" result="effect1_dropShadow_4467_11739"/>
<feOffset dy="20"/>
<feGaussianBlur stdDeviation="15"/>
<feColorMatrix type="matrix" values="0 0 0 0 0.768627 0 0 0 0 0.992157 0 0 0 0 0.980392 0 0 0 0.1 0"/>
<feBlend mode="normal" in2="BackgroundImageFix" result="effect1_dropShadow_4467_11739"/>
<feBlend mode="normal" in="SourceGraphic" in2="effect1_dropShadow_4467_11739" result="shape"/>
</filter>
<filter id="filter1_d_4467_11739" x="415.616" y="31.72" width="118.485" height="85.3716" filterUnits="userSpaceOnUse" color-interpolation-filters="sRGB">
<feFlood flood-opacity="0" result="BackgroundImageFix"/>
<feColorMatrix in="SourceAlpha" type="matrix" values="0 0 0 0 0 0 0 0 0 0 0 0 0 0 0 0 0 0 127 0" result="hardAlpha"/>
<feMorphology radius="10" operator="erode" in="SourceAlpha" result="effect1_dropShadow_4467_11739"/>
<feOffset dy="20"/>
<feGaussianBlur stdDeviation="15"/>
<feColorMatrix type="matrix" values="0 0 0 0 0.768627 0 0 0 0 0.992157 0 0 0 0 0.980392 0 0 0 0.1 0"/>
<feBlend mode="normal" in2="BackgroundImageFix" result="effect1_dropShadow_4467_11739"/>
<feBlend mode="normal" in="SourceGraphic" in2="effect1_dropShadow_4467_11739" result="shape"/>
</filter>
</defs>
</svg>
