<svg width="547" height="266" viewBox="0 0 547 266" fill="none" xmlns="http://www.w3.org/2000/svg">
<g opacity="0.37">
<path d="M429.215 153.354C406.74 153.385 384.262 158.387 367.104 168.331C349.943 178.276 341.408 191.243 341.354 204.126C341.3 217.007 349.725 229.949 366.801 239.845C383.875 249.74 406.31 254.678 428.785 254.646C451.26 254.615 473.738 249.613 490.896 239.669C508.057 229.724 516.592 216.757 516.646 203.874C516.7 190.993 508.275 178.052 491.199 168.155C474.125 158.26 451.69 153.322 429.215 153.354Z" stroke="#99F6E4" stroke-width="0.70625"/>
<path opacity="0.79" d="M429.307 132.354C397.106 132.398 364.894 139.463 340.297 153.519C315.697 167.576 303.431 185.922 303.354 204.177C303.276 222.43 315.384 240.741 339.863 254.729C364.34 268.715 396.492 275.691 428.693 275.646C460.894 275.602 493.106 268.537 517.703 254.481C542.303 240.424 554.569 222.078 554.646 203.823C554.724 185.57 542.616 167.259 518.137 153.271C493.66 139.285 461.508 132.309 429.307 132.354Z" stroke="#99F6E4" stroke-width="0.70625"/>
<path opacity="0.5" d="M429.431 101.354C384.179 101.418 338.903 111.528 304.324 131.65C269.743 151.774 252.463 178.061 252.354 204.252C252.244 230.442 269.304 256.679 303.716 276.704C338.126 296.728 383.316 306.71 428.568 306.646C473.82 306.582 519.097 296.472 553.676 276.35C588.257 256.226 605.537 229.939 605.646 203.748C605.756 177.558 588.696 151.321 554.284 131.296C519.874 111.272 474.683 101.289 429.431 101.354Z" stroke="#99F6E4" stroke-width="0.70625"/>
<path opacity="0.4" d="M429.602 62.3535C366.434 62.4419 303.227 76.3849 254.946 104.142C206.663 131.9 182.507 168.177 182.354 204.347C182.2 240.516 206.048 276.724 254.096 304.347C302.141 331.968 365.231 345.735 428.398 345.646C491.566 345.558 554.773 331.615 603.054 303.858C651.337 276.1 675.493 239.823 675.646 203.653C675.8 167.484 651.951 131.276 603.903 103.653C555.858 76.032 492.769 62.2652 429.602 62.3535Z" stroke="#99F6E4" stroke-width="0.70625"/>
<path opacity="0.3" d="M429.794 15.3535C346.409 15.4711 262.966 34.0324 199.222 70.9883C135.476 107.945 103.557 156.261 103.354 204.461C103.152 252.66 134.665 300.885 198.101 337.662C261.534 374.438 344.822 392.764 428.206 392.646C511.591 392.529 595.034 373.968 658.778 337.012C722.524 300.055 754.443 251.739 754.646 203.539C754.848 155.34 723.335 107.115 659.899 70.3379C596.466 33.5621 513.178 15.2359 429.794 15.3535Z" stroke="#99F6E4" stroke-width="0.70625"/>
<path opacity="0.25" d="M430.071 -50.6465C317.512 -50.4878 204.866 -25.4419 118.808 24.4326C32.7478 74.3083 -10.3722 139.532 -10.6455 204.622C-10.9187 269.712 31.6531 334.813 117.294 384.445C202.933 434.077 315.369 458.805 427.929 458.646C540.488 458.488 653.134 433.442 739.192 383.567C825.252 333.692 868.372 268.468 868.646 203.378C868.919 138.288 826.347 73.1874 740.706 23.5547C655.067 -26.0771 542.631 -50.8052 430.071 -50.6465Z" stroke="#99F6E4" stroke-width="0.70625"/>
</g>
<path d="M149 204.473H148.963C148.476 212.181 143.036 219.819 132.649 225.716C110.922 238.052 75.7814 238.101 54.1601 225.825C43.7553 219.917 38.3786 212.232 38.0203 204.473H38V106H149V204.473Z" fill="url(#paint0_linear_4467_11615)" fill-opacity="0.5"/>
<path d="M93.3623 172.354C79.175 172.373 64.9926 175.508 54.1729 181.733C43.3508 187.96 37.9998 196.06 37.9658 204.079C37.9319 212.097 43.2135 220.18 53.9814 226.376C64.7476 232.571 78.9025 235.666 93.0898 235.646C107.277 235.627 121.46 232.492 132.279 226.267C143.101 220.04 148.452 211.94 148.486 203.921C148.52 195.903 143.239 187.82 132.471 181.624C121.705 175.429 107.55 172.334 93.3623 172.354Z" fill="white" stroke="#99F6E4" stroke-width="0.70625"/>
<g filter="url(#filter0_d_4467_11615)">
<mask id="path-9-inside-1_4467_11615" fill="white">
<path d="M122.58 183.977C106.13 174.446 79.3938 174.485 62.8633 184.062C57.7112 187.047 54.1587 190.606 52.207 194.38H50.4219V201.418H50.4238C50.4154 207.666 54.5104 213.905 62.7178 218.66C79.168 228.19 105.904 228.153 122.435 218.576C130.63 213.828 134.776 207.626 134.871 201.418H134.875V194.38H133.206C131.299 190.569 127.759 186.977 122.58 183.977Z"/>
</mask>
<path d="M122.58 183.977C106.13 174.446 79.3938 174.485 62.8633 184.062C57.7112 187.047 54.1587 190.606 52.207 194.38H50.4219V201.418H50.4238C50.4154 207.666 54.5104 213.905 62.7178 218.66C79.168 228.19 105.904 228.153 122.435 218.576C130.63 213.828 134.776 207.626 134.871 201.418H134.875V194.38H133.206C131.299 190.569 127.759 186.977 122.58 183.977Z" fill="#CCFBF1"/>
<path fill-rule="evenodd" clip-rule="evenodd" d="M122.58 183.977L122.934 183.366L122.934 183.366L122.58 183.977ZM62.8633 184.062L62.5092 183.451V183.451L62.8633 184.062ZM52.207 194.38L52.8344 194.705L52.6369 195.087H52.207V194.38ZM50.4219 194.38H49.7156V193.674H50.4219V194.38ZM50.4219 201.418V202.125H49.7156V201.418H50.4219ZM50.4238 201.418V200.712H51.131L51.1301 201.419L50.4238 201.418ZM62.7178 218.66L62.3637 219.271L62.3637 219.271L62.7178 218.66ZM122.435 218.576L122.789 219.187L122.789 219.187L122.435 218.576ZM134.871 201.418L134.165 201.408L134.176 200.712H134.871V201.418ZM134.875 201.418H135.581V202.125H134.875V201.418ZM134.875 194.38V193.674H135.581V194.38H134.875ZM133.206 194.38V195.087H132.77L132.574 194.696L133.206 194.38ZM122.58 183.977L122.226 184.588C114.134 179.9 103.468 177.545 92.7528 177.56C82.0378 177.576 71.3504 179.961 63.2173 184.673L62.8633 184.062L62.5092 183.451C70.9067 178.586 81.8526 176.163 92.7508 176.148C103.649 176.132 114.576 178.523 122.934 183.366L122.58 183.977ZM62.8633 184.062L63.2173 184.673C58.1496 187.609 54.7091 191.079 52.8344 194.705L52.207 194.38L51.5797 194.056C53.6084 190.133 57.2727 186.485 62.5092 183.451L62.8633 184.062ZM52.207 194.38V195.087H50.4219V194.38V193.674H52.207V194.38ZM50.4219 194.38H51.1281V201.418H50.4219H49.7156V194.38H50.4219ZM50.4219 201.418V200.712H50.4238V201.418V202.125H50.4219V201.418ZM50.4238 201.418L51.1301 201.419C51.1221 207.327 54.9946 213.369 63.0718 218.049L62.7178 218.66L62.3637 219.271C54.0262 214.44 49.7086 208.005 49.7176 201.417L50.4238 201.418ZM62.7178 218.66L63.0718 218.049C71.1635 222.737 81.8299 225.092 92.5451 225.077C103.26 225.062 113.948 222.676 122.081 217.965L122.435 218.576L122.789 219.187C114.391 224.052 103.445 226.474 92.5471 226.489C81.6491 226.505 70.7223 224.113 62.3637 219.271L62.7178 218.66ZM122.435 218.576L122.081 217.965C130.148 213.29 134.075 207.281 134.165 201.408L134.871 201.418L135.577 201.429C135.477 207.972 131.111 214.365 122.789 219.187L122.435 218.576ZM134.871 201.418V200.712H134.875V201.418V202.125H134.871V201.418ZM134.875 201.418H134.169V194.38H134.875H135.581V201.418H134.875ZM134.875 194.38V195.087H133.206V194.38V193.674H134.875V194.38ZM133.206 194.38L132.574 194.696C130.745 191.039 127.318 187.539 122.226 184.588L122.58 183.977L122.934 183.366C128.199 186.416 131.854 190.1 133.838 194.064L133.206 194.38Z" fill="#0D9488" mask="url(#path-9-inside-1_4467_11615)"/>
<path d="M92.752 170.17C81.9909 170.185 71.2384 172.562 63.0391 177.28C54.8374 181.999 50.801 188.126 50.7754 194.174C50.7498 200.22 54.7332 206.334 62.8936 211.029C71.0521 215.724 81.7846 218.072 92.5459 218.057C103.307 218.041 114.06 215.664 122.259 210.946C130.46 206.227 134.496 200.1 134.521 194.053C134.547 188.006 130.564 181.893 122.403 177.197C114.245 172.503 103.513 170.155 92.752 170.17Z" fill="#99F6E4" stroke="#99F6E4" stroke-width="0.70625"/>
</g>
<mask id="path-12-inside-2_4467_11615" fill="white">
<path d="M122.58 179.05C106.13 169.519 79.3938 169.557 62.8633 179.134C57.7111 182.119 54.1587 185.679 52.207 189.453H50.4219V196.49H50.4238C50.415 202.738 54.5101 208.976 62.7178 213.732C79.168 223.262 105.904 223.225 122.435 213.648C130.63 208.9 134.776 202.698 134.871 196.49H134.875V189.453H133.206C131.299 185.642 127.759 182.05 122.58 179.05Z"/>
</mask>
<path d="M122.58 179.05C106.13 169.519 79.3938 169.557 62.8633 179.134C57.7111 182.119 54.1587 185.679 52.207 189.453H50.4219V196.49H50.4238C50.415 202.738 54.5101 208.976 62.7178 213.732C79.168 223.262 105.904 223.225 122.435 213.648C130.63 208.9 134.776 202.698 134.871 196.49H134.875V189.453H133.206C131.299 185.642 127.759 182.05 122.58 179.05Z" fill="#F0FDFA"/>
<path fill-rule="evenodd" clip-rule="evenodd" d="M122.58 179.05L122.934 178.439L122.934 178.439L122.58 179.05ZM62.8633 179.134L62.5092 178.523L62.5092 178.523L62.8633 179.134ZM52.207 189.453L52.8344 189.778L52.6369 190.16H52.207V189.453ZM50.4219 189.453H49.7156V188.747H50.4219V189.453ZM50.4219 196.49V197.197H49.7156V196.49H50.4219ZM50.4238 196.49V195.784H51.1311L51.1301 196.491L50.4238 196.49ZM62.7178 213.732L62.3637 214.343V214.343L62.7178 213.732ZM122.435 213.648L122.789 214.259H122.789L122.435 213.648ZM134.871 196.49L134.165 196.48L134.176 195.784H134.871V196.49ZM134.875 196.49H135.581V197.197H134.875V196.49ZM134.875 189.453V188.747H135.581V189.453H134.875ZM133.206 189.453V190.16H132.77L132.574 189.769L133.206 189.453ZM122.58 179.05L122.226 179.661C114.134 174.973 103.468 172.618 92.7528 172.633C82.0378 172.648 71.3504 175.033 63.2173 179.745L62.8633 179.134L62.5092 178.523C70.9067 173.658 81.8526 171.236 92.7508 171.22C103.649 171.205 114.576 173.596 122.934 178.439L122.58 179.05ZM62.8633 179.134L63.2173 179.745C58.1496 182.681 54.7091 186.152 52.8344 189.778L52.207 189.453L51.5797 189.129C53.6083 185.206 57.2726 181.557 62.5092 178.523L62.8633 179.134ZM52.207 189.453V190.16H50.4219V189.453V188.747H52.207V189.453ZM50.4219 189.453H51.1281V196.49H50.4219H49.7156V189.453H50.4219ZM50.4219 196.49V195.784H50.4238V196.49V197.197H50.4219V196.49ZM50.4238 196.49L51.1301 196.491C51.1218 202.399 54.9943 208.441 63.0718 213.121L62.7178 213.732L62.3637 214.343C54.026 209.512 49.7083 203.077 49.7176 196.489L50.4238 196.49ZM62.7178 213.732L63.0718 213.121C71.1635 217.809 81.8299 220.164 92.5451 220.149C103.26 220.134 113.947 217.749 122.081 213.037L122.435 213.648L122.789 214.259C114.391 219.124 103.445 221.546 92.5471 221.561C81.6491 221.577 70.7223 219.185 62.3637 214.343L62.7178 213.732ZM122.435 213.648L122.081 213.037C130.148 208.362 134.075 202.353 134.165 196.48L134.871 196.49L135.577 196.501C135.477 203.044 131.111 209.437 122.789 214.259L122.435 213.648ZM134.871 196.49V195.784H134.875V196.49V197.197H134.871V196.49ZM134.875 196.49H134.169V189.453H134.875H135.581V196.49H134.875ZM134.875 189.453V190.16H133.206V189.453V188.747H134.875V189.453ZM133.206 189.453L132.574 189.769C130.745 186.112 127.318 182.612 122.226 179.661L122.58 179.05L122.934 178.439C128.199 181.489 131.854 185.173 133.838 189.137L133.206 189.453Z" fill="#0D9488" mask="url(#path-12-inside-2_4467_11615)"/>
<mask id="path-14-inside-3_4467_11615" fill="white">
<path d="M122.58 171.921C106.13 162.39 79.3938 162.428 62.8633 172.005C57.7111 174.99 54.1587 178.55 52.207 182.324H50.4219V189.361H50.4238C50.415 195.609 54.5101 201.847 62.7178 206.602C79.168 216.133 105.904 216.096 122.435 206.518C130.63 201.77 134.776 195.569 134.871 189.361H134.875V182.324H133.206C131.299 178.513 127.759 174.921 122.58 171.921Z"/>
</mask>
<path d="M122.58 171.921C106.13 162.39 79.3938 162.428 62.8633 172.005C57.7111 174.99 54.1587 178.55 52.207 182.324H50.4219V189.361H50.4238C50.415 195.609 54.5101 201.847 62.7178 206.602C79.168 216.133 105.904 216.096 122.435 206.518C130.63 201.77 134.776 195.569 134.871 189.361H134.875V182.324H133.206C131.299 178.513 127.759 174.921 122.58 171.921Z" fill="#F0FDFA"/>
<path fill-rule="evenodd" clip-rule="evenodd" d="M122.58 171.921L122.934 171.31L122.934 171.31L122.58 171.921ZM62.8633 172.005L62.5092 171.394L62.5092 171.394L62.8633 172.005ZM52.207 182.324L52.8344 182.648L52.6369 183.03H52.207V182.324ZM50.4219 182.324H49.7156V181.618H50.4219V182.324ZM50.4219 189.361V190.067H49.7156V189.361H50.4219ZM50.4238 189.361V188.655H51.1311L51.1301 189.362L50.4238 189.361ZM62.7178 206.602L62.3637 207.214V207.214L62.7178 206.602ZM122.435 206.518L122.789 207.13H122.789L122.435 206.518ZM134.871 189.361L134.165 189.35L134.176 188.655H134.871V189.361ZM134.875 189.361H135.581V190.067H134.875V189.361ZM134.875 182.324V181.618H135.581V182.324H134.875ZM133.206 182.324V183.03H132.77L132.574 182.64L133.206 182.324ZM122.58 171.921L122.226 172.532C114.134 167.844 103.468 165.489 92.7528 165.504C82.0378 165.519 71.3504 167.904 63.2173 172.616L62.8633 172.005L62.5092 171.394C70.9067 166.529 81.8526 164.107 92.7508 164.091C103.649 164.076 114.576 166.467 122.934 171.31L122.58 171.921ZM62.8633 172.005L63.2173 172.616C58.1496 175.552 54.7091 179.023 52.8344 182.648L52.207 182.324L51.5797 182C53.6083 178.077 57.2726 174.428 62.5092 171.394L62.8633 172.005ZM52.207 182.324V183.03H50.4219V182.324V181.618H52.207V182.324ZM50.4219 182.324H51.1281V189.361H50.4219H49.7156V182.324H50.4219ZM50.4219 189.361V188.655H50.4238V189.361V190.067H50.4219V189.361ZM50.4238 189.361L51.1301 189.362C51.1218 195.27 54.9943 201.311 63.0718 205.991L62.7178 206.602L62.3637 207.214C54.026 202.383 49.7083 195.948 49.7176 189.36L50.4238 189.361ZM62.7178 206.602L63.0718 205.991C71.1635 210.679 81.8299 213.035 92.5451 213.02C103.26 213.005 113.947 210.619 122.081 205.907L122.435 206.518L122.789 207.13C114.391 211.995 103.445 214.417 92.5471 214.432C81.6491 214.447 70.7223 212.056 62.3637 207.214L62.7178 206.602ZM122.435 206.518L122.081 205.907C130.148 201.233 134.075 195.224 134.165 189.35L134.871 189.361L135.577 189.372C135.477 195.915 131.111 202.308 122.789 207.13L122.435 206.518ZM134.871 189.361V188.655H134.875V189.361V190.067H134.871V189.361ZM134.875 189.361H134.169V182.324H134.875H135.581V189.361H134.875ZM134.875 182.324V183.03H133.206V182.324V181.618H134.875V182.324ZM133.206 182.324L132.574 182.64C130.745 178.983 127.318 175.482 122.226 172.532L122.58 171.921L122.934 171.31C128.199 174.36 131.854 178.043 133.838 182.008L133.206 182.324Z" fill="#0D9488" mask="url(#path-14-inside-3_4467_11615)"/>
<mask id="path-16-inside-4_4467_11615" fill="white">
<path d="M122.58 164.792C106.13 155.261 79.3938 155.299 62.8633 164.875C57.7111 167.86 54.1587 171.421 52.207 175.195H50.4219V182.232H50.4238C50.415 188.48 54.5101 194.718 62.7178 199.473C79.168 209.004 105.904 208.966 122.435 199.389C130.63 194.641 134.776 188.44 134.871 182.232H134.875V175.195H133.206C131.299 171.384 127.759 167.792 122.58 164.792Z"/>
</mask>
<path d="M122.58 164.792C106.13 155.261 79.3938 155.299 62.8633 164.875C57.7111 167.86 54.1587 171.421 52.207 175.195H50.4219V182.232H50.4238C50.415 188.48 54.5101 194.718 62.7178 199.473C79.168 209.004 105.904 208.966 122.435 199.389C130.63 194.641 134.776 188.44 134.871 182.232H134.875V175.195H133.206C131.299 171.384 127.759 167.792 122.58 164.792Z" fill="#F0FDFA"/>
<path fill-rule="evenodd" clip-rule="evenodd" d="M122.58 164.792L122.934 164.18L122.934 164.18L122.58 164.792ZM62.8633 164.875L62.5092 164.264L62.5092 164.264L62.8633 164.875ZM52.207 175.195L52.8344 175.519L52.6369 175.901H52.207V175.195ZM50.4219 175.195H49.7156V174.489H50.4219V175.195ZM50.4219 182.232V182.938H49.7156V182.232H50.4219ZM50.4238 182.232V181.526H51.1311L51.1301 182.233L50.4238 182.232ZM62.7178 199.473L62.3637 200.084V200.084L62.7178 199.473ZM122.435 199.389L122.789 200H122.789L122.435 199.389ZM134.871 182.232L134.165 182.221L134.176 181.526H134.871V182.232ZM134.875 182.232H135.581V182.938H134.875V182.232ZM134.875 175.195V174.489H135.581V175.195H134.875ZM133.206 175.195V175.901H132.77L132.574 175.511L133.206 175.195ZM122.58 164.792L122.226 165.403C114.134 160.715 103.468 158.359 92.7528 158.374C82.0378 158.389 71.3504 160.775 63.2173 165.487L62.8633 164.875L62.5092 164.264C70.9067 159.399 81.8526 156.977 92.7508 156.962C103.649 156.947 114.576 159.338 122.934 164.18L122.58 164.792ZM62.8633 164.875L63.2173 165.487C58.1496 168.423 54.7091 171.894 52.8344 175.519L52.207 175.195L51.5797 174.87C53.6083 170.947 57.2726 167.298 62.5092 164.264L62.8633 164.875ZM52.207 175.195V175.901H50.4219V175.195V174.489H52.207V175.195ZM50.4219 175.195H51.1281V182.232H50.4219H49.7156V175.195H50.4219ZM50.4219 182.232V181.526H50.4238V182.232V182.938H50.4219V182.232ZM50.4238 182.232L51.1301 182.233C51.1218 188.141 54.9943 194.182 63.0718 198.862L62.7178 199.473L62.3637 200.084C54.026 195.254 49.7083 188.818 49.7176 182.231L50.4238 182.232ZM62.7178 199.473L63.0718 198.862C71.1635 203.55 81.8299 205.905 92.5451 205.89C103.26 205.875 113.947 203.49 122.081 198.778L122.435 199.389L122.789 200C114.391 204.865 103.445 207.288 92.5471 207.303C81.6491 207.318 70.7223 204.927 62.3637 200.084L62.7178 199.473ZM122.435 199.389L122.081 198.778C130.148 194.104 134.075 188.094 134.165 182.221L134.871 182.232L135.577 182.243C135.477 188.785 131.111 195.178 122.789 200L122.435 199.389ZM134.871 182.232V181.526H134.875V182.232V182.938H134.871V182.232ZM134.875 182.232H134.169V175.195H134.875H135.581V182.232H134.875ZM134.875 175.195V175.901H133.206V175.195V174.489H134.875V175.195ZM133.206 175.195L132.574 175.511C130.745 171.853 127.318 168.353 122.226 165.403L122.58 164.792L122.934 164.18C128.199 167.231 131.854 170.914 133.838 174.879L133.206 175.195Z" fill="#0D9488" mask="url(#path-16-inside-4_4467_11615)"/>
<mask id="path-18-inside-5_4467_11615" fill="white">
<path d="M122.58 164.698C106.13 155.167 79.3936 155.206 62.8631 164.783C46.3326 174.36 46.2674 189.85 62.7176 199.381C79.1678 208.911 105.904 208.874 122.434 199.297C138.965 189.72 139.03 174.229 122.58 164.698Z"/>
</mask>
<path d="M122.58 164.698C106.13 155.167 79.3936 155.206 62.8631 164.783C46.3326 174.36 46.2674 189.85 62.7176 199.381C79.1678 208.911 105.904 208.874 122.434 199.297C138.965 189.72 139.03 174.229 122.58 164.698Z" fill="#F0FDFA"/>
<path fill-rule="evenodd" clip-rule="evenodd" d="M122.58 164.698L122.934 164.087L122.934 164.087L122.58 164.698ZM62.8631 164.783L62.5091 164.172V164.172L62.8631 164.783ZM62.7176 199.381L62.3636 199.992L62.3635 199.992L62.7176 199.381ZM122.434 199.297L122.788 199.908L122.788 199.908L122.434 199.297ZM122.58 164.698L122.226 165.309C114.134 160.621 103.468 158.266 92.7526 158.281C82.0376 158.297 71.3502 160.682 63.2172 165.394L62.8631 164.783L62.5091 164.172C70.9065 159.307 81.8524 156.884 92.7506 156.869C103.649 156.853 114.575 159.244 122.934 164.087L122.58 164.698ZM62.8631 164.783L63.2172 165.394C55.08 170.109 51.1537 176.18 51.1288 182.102C51.1039 188.022 54.9769 194.08 63.0716 198.77L62.7176 199.381L62.3635 199.992C54.0081 195.151 49.6886 188.698 49.7163 182.096C49.7441 175.496 54.1157 169.035 62.5091 164.172L62.8631 164.783ZM62.7176 199.381L63.0716 198.77C71.1633 203.458 81.8297 205.813 92.5449 205.798C103.26 205.783 113.947 203.398 122.08 198.686L122.434 199.297L122.788 199.908C114.391 204.773 103.445 207.195 92.5469 207.21C81.6489 207.226 70.7221 204.834 62.3636 199.992L62.7176 199.381ZM122.434 199.297L122.08 198.686C130.217 193.971 134.144 187.899 134.169 181.977C134.194 176.057 130.321 169.999 122.226 165.309L122.58 164.698L122.934 164.087C131.289 168.928 135.609 175.381 135.581 181.983C135.553 188.583 131.182 195.045 122.788 199.908L122.434 199.297Z" fill="#0D9488" mask="url(#path-18-inside-5_4467_11615)"/>
<path d="M92.752 150.891C81.9909 150.906 71.2384 153.284 63.0391 158.001C54.8374 162.721 50.801 168.848 50.7754 174.895C50.7498 180.941 54.7332 187.055 62.8936 191.75C71.0521 196.445 81.7846 198.793 92.5459 198.778C103.307 198.763 114.06 196.385 122.259 191.667C130.46 186.948 134.496 180.821 134.521 174.774C134.547 168.727 130.564 162.614 122.403 157.918C114.245 153.224 103.513 150.876 92.752 150.891Z" fill="#CCFBF1" stroke="#0D9488" stroke-width="0.70625"/>
<path d="M309 204.473H308.963C308.476 212.181 303.036 219.819 292.649 225.716C270.922 238.052 235.781 238.101 214.16 225.825C203.755 219.917 198.379 212.232 198.02 204.473H198V106H309V204.473Z" fill="url(#paint1_linear_4467_11615)" fill-opacity="0.5"/>
<path d="M253.362 172.354C239.175 172.373 224.993 175.508 214.173 181.733C203.351 187.96 198 196.06 197.966 204.079C197.932 212.097 203.213 220.18 213.981 226.376C224.748 232.571 238.903 235.666 253.09 235.646C267.277 235.627 281.46 232.492 292.279 226.267C303.101 220.04 308.452 211.94 308.486 203.921C308.52 195.903 303.239 187.82 292.471 181.624C281.705 175.429 267.55 172.334 253.362 172.354Z" fill="white" stroke="#99F6E4" stroke-width="0.70625"/>
<g filter="url(#filter1_d_4467_11615)">
<mask id="path-23-inside-6_4467_11615" fill="white">
<path d="M282.58 183.977C266.13 174.446 239.394 174.485 222.863 184.062C217.711 187.047 214.159 190.606 212.207 194.38H210.422V201.418H210.424C210.415 207.666 214.51 213.905 222.718 218.66C239.168 228.19 265.904 228.153 282.435 218.576C290.63 213.828 294.776 207.626 294.871 201.418H294.875V194.38H293.206C291.299 190.569 287.759 186.977 282.58 183.977Z"/>
</mask>
<path d="M282.58 183.977C266.13 174.446 239.394 174.485 222.863 184.062C217.711 187.047 214.159 190.606 212.207 194.38H210.422V201.418H210.424C210.415 207.666 214.51 213.905 222.718 218.66C239.168 228.19 265.904 228.153 282.435 218.576C290.63 213.828 294.776 207.626 294.871 201.418H294.875V194.38H293.206C291.299 190.569 287.759 186.977 282.58 183.977Z" fill="#14B8A6"/>
<path fill-rule="evenodd" clip-rule="evenodd" d="M282.58 183.977L282.934 183.366L282.934 183.366L282.58 183.977ZM222.863 184.062L222.509 183.451V183.451L222.863 184.062ZM212.207 194.38L212.834 194.705L212.637 195.087H212.207V194.38ZM210.422 194.38H209.716V193.674H210.422V194.38ZM210.422 201.418V202.125H209.716V201.418H210.422ZM210.424 201.418V200.712H211.131L211.13 201.419L210.424 201.418ZM222.718 218.66L222.364 219.271L222.364 219.271L222.718 218.66ZM282.435 218.576L282.789 219.187L282.789 219.187L282.435 218.576ZM294.871 201.418L294.165 201.408L294.176 200.712H294.871V201.418ZM294.875 201.418H295.581V202.125H294.875V201.418ZM294.875 194.38V193.674H295.581V194.38H294.875ZM293.206 194.38V195.087H292.77L292.574 194.696L293.206 194.38ZM282.58 183.977L282.226 184.588C274.134 179.9 263.468 177.545 252.753 177.56C242.038 177.576 231.35 179.961 223.217 184.673L222.863 184.062L222.509 183.451C230.907 178.586 241.853 176.163 252.751 176.148C263.649 176.132 274.576 178.523 282.934 183.366L282.58 183.977ZM222.863 184.062L223.217 184.673C218.15 187.609 214.709 191.079 212.834 194.705L212.207 194.38L211.58 194.056C213.608 190.133 217.273 186.485 222.509 183.451L222.863 184.062ZM212.207 194.38V195.087H210.422V194.38V193.674H212.207V194.38ZM210.422 194.38H211.128V201.418H210.422H209.716V194.38H210.422ZM210.422 201.418V200.712H210.424V201.418V202.125H210.422V201.418ZM210.424 201.418L211.13 201.419C211.122 207.327 214.995 213.369 223.072 218.049L222.718 218.66L222.364 219.271C214.026 214.44 209.709 208.005 209.718 201.417L210.424 201.418ZM222.718 218.66L223.072 218.049C231.163 222.737 241.83 225.092 252.545 225.077C263.26 225.062 273.948 222.676 282.081 217.965L282.435 218.576L282.789 219.187C274.391 224.052 263.445 226.474 252.547 226.489C241.649 226.505 230.722 224.113 222.364 219.271L222.718 218.66ZM282.435 218.576L282.081 217.965C290.148 213.29 294.075 207.281 294.165 201.408L294.871 201.418L295.577 201.429C295.477 207.972 291.111 214.365 282.789 219.187L282.435 218.576ZM294.871 201.418V200.712H294.875V201.418V202.125H294.871V201.418ZM294.875 201.418H294.169V194.38H294.875H295.581V201.418H294.875ZM294.875 194.38V195.087H293.206V194.38V193.674H294.875V194.38ZM293.206 194.38L292.574 194.696C290.745 191.039 287.318 187.539 282.226 184.588L282.58 183.977L282.934 183.366C288.199 186.416 291.854 190.1 293.838 194.064L293.206 194.38Z" fill="#99F6E4" mask="url(#path-23-inside-6_4467_11615)"/>
<path d="M252.752 170.17C241.991 170.185 231.238 172.562 223.039 177.28C214.837 181.999 210.801 188.126 210.775 194.174C210.75 200.22 214.733 206.334 222.894 211.029C231.052 215.724 241.785 218.072 252.546 218.057C263.307 218.041 274.06 215.664 282.259 210.946C290.46 206.227 294.496 200.1 294.521 194.053C294.547 188.006 290.564 181.893 282.403 177.197C274.245 172.503 263.513 170.155 252.752 170.17Z" fill="#99F6E4" stroke="#99F6E4" stroke-width="0.70625"/>
</g>
<mask id="path-26-inside-7_4467_11615" fill="white">
<path d="M282.58 179.05C266.13 169.519 239.394 169.558 222.863 179.135C217.711 182.119 214.16 185.679 212.208 189.453H210.422V196.491H210.424C210.415 202.739 214.51 208.977 222.718 213.732C239.168 223.263 265.904 223.225 282.435 213.648C290.63 208.9 294.776 202.699 294.871 196.491H294.875V189.453H293.206C291.299 185.642 287.759 182.05 282.58 179.05Z"/>
</mask>
<path d="M282.58 179.05C266.13 169.519 239.394 169.558 222.863 179.135C217.711 182.119 214.16 185.679 212.208 189.453H210.422V196.491H210.424C210.415 202.739 214.51 208.977 222.718 213.732C239.168 223.263 265.904 223.225 282.435 213.648C290.63 208.9 294.776 202.699 294.871 196.491H294.875V189.453H293.206C291.299 185.642 287.759 182.05 282.58 179.05Z" fill="#F0FDFA"/>
<path fill-rule="evenodd" clip-rule="evenodd" d="M282.58 179.05L282.934 178.439L282.934 178.439L282.58 179.05ZM222.863 179.135L222.509 178.524L222.509 178.524L222.863 179.135ZM212.208 189.453L212.835 189.777L212.638 190.159H212.208V189.453ZM210.422 189.453H209.716V188.747H210.422V189.453ZM210.422 196.491V197.197H209.716V196.491H210.422ZM210.424 196.491V195.785H211.131L211.13 196.492L210.424 196.491ZM222.718 213.732L222.364 214.343L222.364 214.343L222.718 213.732ZM282.435 213.648L282.789 214.259H282.789L282.435 213.648ZM294.871 196.491L294.165 196.48L294.176 195.785H294.871V196.491ZM294.875 196.491H295.581V197.197H294.875V196.491ZM294.875 189.453V188.747H295.581V189.453H294.875ZM293.206 189.453V190.159H292.77L292.574 189.769L293.206 189.453ZM282.58 179.05L282.226 179.661C274.134 174.973 263.468 172.618 252.753 172.633C242.038 172.648 231.35 175.034 223.217 179.746L222.863 179.135L222.509 178.524C230.907 173.658 241.853 171.236 252.751 171.22C263.649 171.205 274.576 173.596 282.934 178.439L282.58 179.05ZM222.863 179.135L223.217 179.746C218.15 182.682 214.71 186.152 212.835 189.777L212.208 189.453L211.581 189.129C213.609 185.206 217.273 181.557 222.509 178.524L222.863 179.135ZM212.208 189.453V190.159H210.422V189.453V188.747H212.208V189.453ZM210.422 189.453H211.128V196.491H210.422H209.716V189.453H210.422ZM210.422 196.491V195.785H210.424V196.491V197.197H210.422V196.491ZM210.424 196.491L211.13 196.492C211.122 202.4 214.995 208.441 223.072 213.121L222.718 213.732L222.364 214.343C214.026 209.513 209.709 203.077 209.718 196.49L210.424 196.491ZM222.718 213.732L223.072 213.121C231.164 217.809 241.83 220.164 252.545 220.149C263.26 220.134 273.948 217.749 282.081 213.037L282.435 213.648L282.789 214.259C274.391 219.125 263.445 221.547 252.547 221.562C241.649 221.577 230.722 219.186 222.364 214.343L222.718 213.732ZM282.435 213.648L282.081 213.037C290.148 208.363 294.075 202.353 294.165 196.48L294.871 196.491L295.577 196.502C295.477 203.044 291.111 209.438 282.789 214.259L282.435 213.648ZM294.871 196.491V195.785H294.875V196.491V197.197H294.871V196.491ZM294.875 196.491H294.169V189.453H294.875H295.581V196.491H294.875ZM294.875 189.453V190.159H293.206V189.453V188.747H294.875V189.453ZM293.206 189.453L292.574 189.769C290.745 186.111 287.318 182.611 282.226 179.661L282.58 179.05L282.934 178.439C288.199 181.489 291.854 185.172 293.838 189.137L293.206 189.453Z" fill="#0D9488" mask="url(#path-26-inside-7_4467_11615)"/>
<mask id="path-28-inside-8_4467_11615" fill="white">
<path d="M282.58 171.92C266.13 162.39 239.394 162.428 222.863 172.005C217.711 174.99 214.16 178.55 212.208 182.324H210.422V189.362H210.424C210.415 195.609 214.51 201.848 222.718 206.603C239.168 216.134 265.904 216.096 282.435 206.519C290.63 201.771 294.776 195.57 294.871 189.362H294.875V182.324H293.206C291.299 178.513 287.759 174.921 282.58 171.92Z"/>
</mask>
<path d="M282.58 171.92C266.13 162.39 239.394 162.428 222.863 172.005C217.711 174.99 214.16 178.55 212.208 182.324H210.422V189.362H210.424C210.415 195.609 214.51 201.848 222.718 206.603C239.168 216.134 265.904 216.096 282.435 206.519C290.63 201.771 294.776 195.57 294.871 189.362H294.875V182.324H293.206C291.299 178.513 287.759 174.921 282.58 171.92Z" fill="#F0FDFA"/>
<path fill-rule="evenodd" clip-rule="evenodd" d="M282.58 171.92L282.934 171.309L282.934 171.309L282.58 171.92ZM222.863 172.005L222.509 171.394L222.509 171.394L222.863 172.005ZM212.208 182.324L212.835 182.648L212.638 183.03H212.208V182.324ZM210.422 182.324H209.716V181.617H210.422V182.324ZM210.422 189.362V190.068H209.716V189.362H210.422ZM210.424 189.362V188.656H211.131L211.13 189.363L210.424 189.362ZM222.718 206.603L222.364 207.214L222.364 207.214L222.718 206.603ZM282.435 206.519L282.789 207.13H282.789L282.435 206.519ZM294.871 189.362L294.165 189.351L294.176 188.656H294.871V189.362ZM294.875 189.362H295.581V190.068H294.875V189.362ZM294.875 182.324V181.617H295.581V182.324H294.875ZM293.206 182.324V183.03H292.77L292.574 182.64L293.206 182.324ZM282.58 171.92L282.226 172.531C274.134 167.843 263.468 165.488 252.753 165.504C242.038 165.519 231.35 167.904 223.217 172.616L222.863 172.005L222.509 171.394C230.907 166.529 241.853 164.107 252.751 164.091C263.649 164.076 274.576 166.467 282.934 171.309L282.58 171.92ZM222.863 172.005L223.217 172.616C218.15 175.552 214.71 179.023 212.835 182.648L212.208 182.324L211.581 181.999C213.609 178.076 217.273 174.428 222.509 171.394L222.863 172.005ZM212.208 182.324V183.03H210.422V182.324V181.617H212.208V182.324ZM210.422 182.324H211.128V189.362H210.422H209.716V182.324H210.422ZM210.422 189.362V188.656H210.424V189.362V190.068H210.422V189.362ZM210.424 189.362L211.13 189.363C211.122 195.27 214.995 201.312 223.072 205.992L222.718 206.603L222.364 207.214C214.026 202.384 209.709 195.948 209.718 189.361L210.424 189.362ZM222.718 206.603L223.072 205.992C231.164 210.68 241.83 213.035 252.545 213.02C263.26 213.005 273.948 210.62 282.081 205.908L282.435 206.519L282.789 207.13C274.391 211.995 263.445 214.417 252.547 214.433C241.649 214.448 230.722 212.057 222.364 207.214L222.718 206.603ZM282.435 206.519L282.081 205.908C290.148 201.234 294.075 195.224 294.165 189.351L294.871 189.362L295.577 189.373C295.477 195.915 291.111 202.308 282.789 207.13L282.435 206.519ZM294.871 189.362V188.656H294.875V189.362V190.068H294.871V189.362ZM294.875 189.362H294.169V182.324H294.875H295.581V189.362H294.875ZM294.875 182.324V183.03H293.206V182.324V181.617H294.875V182.324ZM293.206 182.324L292.574 182.64C290.745 178.982 287.318 175.482 282.226 172.531L282.58 171.92L282.934 171.309C288.199 174.36 291.854 178.043 293.838 182.008L293.206 182.324Z" fill="#0D9488" mask="url(#path-28-inside-8_4467_11615)"/>
<mask id="path-30-inside-9_4467_11615" fill="white">
<path d="M282.58 164.791C266.13 155.26 239.394 155.299 222.863 164.876C217.711 167.861 214.16 171.42 212.208 175.194H210.422V182.233H210.424C210.415 188.48 214.51 194.719 222.718 199.474C239.168 209.004 265.904 208.967 282.435 199.39C290.63 194.642 294.776 188.44 294.871 182.233H294.875V175.194H293.206C291.299 171.383 287.759 167.791 282.58 164.791Z"/>
</mask>
<path d="M282.58 164.791C266.13 155.26 239.394 155.299 222.863 164.876C217.711 167.861 214.16 171.42 212.208 175.194H210.422V182.233H210.424C210.415 188.48 214.51 194.719 222.718 199.474C239.168 209.004 265.904 208.967 282.435 199.39C290.63 194.642 294.776 188.44 294.871 182.233H294.875V175.194H293.206C291.299 171.383 287.759 167.791 282.58 164.791Z" fill="#F0FDFA"/>
<path fill-rule="evenodd" clip-rule="evenodd" d="M282.58 164.791L282.934 164.18L282.934 164.18L282.58 164.791ZM222.863 164.876L222.509 164.265L222.509 164.265L222.863 164.876ZM212.208 175.194L212.835 175.519L212.638 175.901H212.208V175.194ZM210.422 175.194H209.716V174.488H210.422V175.194ZM210.422 182.233V182.939H209.716V182.233H210.422ZM210.424 182.233V181.526H211.131L211.13 182.233L210.424 182.233ZM222.718 199.474L222.364 200.085L222.364 200.085L222.718 199.474ZM282.435 199.39L282.789 200.001H282.789L282.435 199.39ZM294.871 182.233L294.165 182.222L294.176 181.526H294.871V182.233ZM294.875 182.233H295.581V182.939H294.875V182.233ZM294.875 175.194V174.488H295.581V175.194H294.875ZM293.206 175.194V175.901H292.77L292.574 175.51L293.206 175.194ZM282.58 164.791L282.226 165.402C274.134 160.714 263.468 158.359 252.753 158.374C242.038 158.39 231.35 160.775 223.217 165.487L222.863 164.876L222.509 164.265C230.907 159.4 241.853 156.977 252.751 156.962C263.649 156.946 274.576 159.337 282.934 164.18L282.58 164.791ZM222.863 164.876L223.217 165.487C218.15 168.423 214.71 171.894 212.835 175.519L212.208 175.194L211.581 174.87C213.609 170.947 217.273 167.299 222.509 164.265L222.863 164.876ZM212.208 175.194V175.901H210.422V175.194V174.488H212.208V175.194ZM210.422 175.194H211.128V182.233H210.422H209.716V175.194H210.422ZM210.422 182.233V181.526H210.424V182.233V182.939H210.422V182.233ZM210.424 182.233L211.13 182.233C211.122 188.141 214.995 194.183 223.072 198.863L222.718 199.474L222.364 200.085C214.026 195.254 209.709 188.819 209.718 182.232L210.424 182.233ZM222.718 199.474L223.072 198.863C231.164 203.551 241.83 205.906 252.545 205.891C263.26 205.876 273.948 203.491 282.081 198.779L282.435 199.39L282.789 200.001C274.391 204.866 263.445 207.288 252.547 207.303C241.649 207.319 230.722 204.927 222.364 200.085L222.718 199.474ZM282.435 199.39L282.081 198.779C290.148 194.104 294.075 188.095 294.165 182.222L294.871 182.233L295.577 182.243C295.477 188.786 291.111 195.179 282.789 200.001L282.435 199.39ZM294.871 182.233V181.526H294.875V182.233V182.939H294.871V182.233ZM294.875 182.233H294.169V175.194H294.875H295.581V182.233H294.875ZM294.875 175.194V175.901H293.206V175.194V174.488H294.875V175.194ZM293.206 175.194L292.574 175.51C290.745 171.853 287.318 168.353 282.226 165.402L282.58 164.791L282.934 164.18C288.199 167.23 291.854 170.914 293.838 174.878L293.206 175.194Z" fill="#0D9488" mask="url(#path-30-inside-9_4467_11615)"/>
<mask id="path-32-inside-10_4467_11615" fill="white">
<path d="M282.58 148.699C266.13 139.168 239.394 139.206 222.863 148.783C213.716 154.083 209.613 161.192 210.558 168.101H210.422V175.139H210.458C210.865 181.049 214.948 186.879 222.718 191.381C239.168 200.911 265.904 200.874 282.435 191.297C290.189 186.804 294.32 181.009 294.822 175.139H294.875V168.101H294.705C295.772 161.152 291.735 154.003 282.58 148.699Z"/>
</mask>
<path d="M282.58 148.699C266.13 139.168 239.394 139.206 222.863 148.783C213.716 154.083 209.613 161.192 210.558 168.101H210.422V175.139H210.458C210.865 181.049 214.948 186.879 222.718 191.381C239.168 200.911 265.904 200.874 282.435 191.297C290.189 186.804 294.32 181.009 294.822 175.139H294.875V168.101H294.705C295.772 161.152 291.735 154.003 282.58 148.699Z" fill="#F0FDFA"/>
<path fill-rule="evenodd" clip-rule="evenodd" d="M282.58 148.699L282.934 148.088L282.934 148.088L282.58 148.699ZM222.863 148.783L222.509 148.172L222.509 148.172L222.863 148.783ZM210.558 168.101L211.257 168.006L211.367 168.808H210.558V168.101ZM210.422 168.101H209.716V167.395H210.422V168.101ZM210.422 175.139V175.846H209.716V175.139H210.422ZM210.458 175.139V174.433H211.117L211.163 175.091L210.458 175.139ZM222.718 191.381L222.364 191.992L222.364 191.992L222.718 191.381ZM282.435 191.297L282.789 191.908V191.908L282.435 191.297ZM294.822 175.139L294.119 175.079L294.174 174.433H294.822V175.139ZM294.875 175.139H295.581V175.846H294.875V175.139ZM294.875 168.101V167.395H295.581V168.101H294.875ZM294.705 168.101V168.808H293.882L294.007 167.994L294.705 168.101ZM282.58 148.699L282.226 149.31C274.134 144.622 263.468 142.267 252.753 142.282C242.038 142.297 231.35 144.682 223.217 149.394L222.863 148.783L222.509 148.172C230.907 143.307 241.853 140.885 252.751 140.869C263.649 140.854 274.576 143.245 282.934 148.088L282.58 148.699ZM222.863 148.783L223.217 149.394C214.212 154.611 210.366 161.485 211.257 168.006L210.558 168.101L209.858 168.197C208.86 160.899 213.22 153.554 222.509 148.172L222.863 148.783ZM210.558 168.101V168.808H210.422V168.101V167.395H210.558V168.101ZM210.422 168.101H211.128V175.139H210.422H209.716V168.101H210.422ZM210.422 175.139V174.433H210.458V175.139V175.846H210.422V175.139ZM210.458 175.139L211.163 175.091C211.548 180.687 215.426 186.34 223.072 190.769L222.718 191.381L222.364 191.992C214.471 187.419 210.182 181.41 209.753 175.188L210.458 175.139ZM222.718 191.381L223.072 190.769C231.164 195.457 241.83 197.813 252.545 197.798C263.26 197.783 273.948 195.397 282.081 190.685L282.435 191.297L282.789 191.908C274.391 196.773 263.445 199.195 252.547 199.21C241.649 199.226 230.722 196.834 222.364 191.992L222.718 191.381ZM282.435 191.297L282.081 190.685C289.715 186.263 293.643 180.642 294.119 175.079L294.822 175.139L295.526 175.2C294.997 181.377 290.664 187.345 282.789 191.908L282.435 191.297ZM294.822 175.139V174.433H294.875V175.139V175.846H294.822V175.139ZM294.875 175.139H294.169V168.101H294.875H295.581V175.139H294.875ZM294.875 168.101V168.808H294.705V168.101V167.395H294.875V168.101ZM294.705 168.101L294.007 167.994C295.014 161.437 291.235 154.53 282.226 149.31L282.58 148.699L282.934 148.088C292.235 153.476 296.53 160.868 295.403 168.208L294.705 168.101Z" fill="#0D9488" mask="url(#path-32-inside-10_4467_11615)"/>
<path d="M252.752 142.891C241.991 142.906 231.238 145.284 223.039 150.001C214.837 154.721 210.801 160.848 210.775 166.895C210.75 172.941 214.733 179.055 222.894 183.75C231.052 188.445 241.785 190.793 252.546 190.778C263.307 190.763 274.06 188.385 282.259 183.667C290.46 178.948 294.496 172.821 294.521 166.774C294.547 160.727 290.564 154.614 282.403 149.918C274.245 145.224 263.513 142.876 252.752 142.891Z" fill="#F0FDFA" stroke="#0D9488" stroke-width="0.70625"/>
<path d="M252.752 134.891C241.991 134.906 231.238 137.284 223.039 142.001C214.837 146.721 210.801 152.848 210.775 158.895C210.75 164.941 214.733 171.055 222.894 175.75C231.052 180.445 241.785 182.793 252.546 182.778C263.307 182.763 274.06 180.385 282.259 175.667C290.46 170.948 294.496 164.821 294.521 158.774C294.547 152.727 290.564 146.614 282.403 141.918C274.245 137.224 263.513 134.876 252.752 134.891Z" fill="#CCFBF1" stroke="#0D9488" stroke-width="0.70625"/>
<path d="M484 196.782H483.963C483.476 206.432 478.036 215.994 467.649 223.377C445.922 238.821 410.781 238.882 389.16 223.513C378.755 216.117 373.379 206.496 373.02 196.782H373V73.5H484V196.782Z" fill="url(#paint2_linear_4467_11615)"/>
<path d="M428.362 172.354C414.175 172.373 399.993 175.508 389.173 181.733C378.351 187.96 373 196.06 372.966 204.079C372.932 212.097 378.213 220.18 388.981 226.376C399.748 232.571 413.903 235.666 428.09 235.646C442.277 235.627 456.46 232.492 467.279 226.267C478.101 220.04 483.452 211.94 483.486 203.921C483.52 195.903 478.239 187.82 467.471 181.624C456.705 175.429 442.55 172.334 428.362 172.354Z" fill="white" stroke="#0D9488" stroke-width="0.70625"/>
<g filter="url(#filter2_d_4467_11615)">
<mask id="path-38-inside-11_4467_11615" fill="white">
<path d="M457.58 183.977C441.13 174.446 414.394 174.485 397.863 184.062C392.711 187.047 389.159 190.606 387.207 194.38H385.422V201.418H385.424C385.415 207.666 389.51 213.905 397.718 218.66C414.168 228.19 440.904 228.153 457.435 218.576C465.63 213.828 469.776 207.626 469.871 201.418H469.875V194.38H468.206C466.299 190.569 462.759 186.977 457.58 183.977Z"/>
</mask>
<path d="M457.58 183.977C441.13 174.446 414.394 174.485 397.863 184.062C392.711 187.047 389.159 190.606 387.207 194.38H385.422V201.418H385.424C385.415 207.666 389.51 213.905 397.718 218.66C414.168 228.19 440.904 228.153 457.435 218.576C465.63 213.828 469.776 207.626 469.871 201.418H469.875V194.38H468.206C466.299 190.569 462.759 186.977 457.58 183.977Z" fill="#0D9488"/>
<path d="M457.58 183.977L457.934 183.366L457.934 183.366L457.58 183.977ZM397.863 184.062L397.509 183.451V183.451L397.863 184.062ZM387.207 194.38L387.834 194.705L387.637 195.087H387.207V194.38ZM385.422 194.38H384.716V193.674H385.422V194.38ZM385.422 201.418V202.125H384.716V201.418H385.422ZM385.424 201.418V200.712H386.131L386.13 201.419L385.424 201.418ZM397.718 218.66L397.364 219.271L397.364 219.271L397.718 218.66ZM457.435 218.576L457.789 219.187L457.789 219.187L457.435 218.576ZM469.871 201.418L469.165 201.408L469.176 200.712H469.871V201.418ZM469.875 201.418H470.581V202.125H469.875V201.418ZM469.875 194.38V193.674H470.581V194.38H469.875ZM468.206 194.38V195.087H467.77L467.574 194.696L468.206 194.38ZM457.58 183.977L457.226 184.588C449.134 179.9 438.468 177.545 427.753 177.56C417.038 177.576 406.35 179.961 398.217 184.673L397.863 184.062L397.509 183.451C405.907 178.586 416.853 176.163 427.751 176.148C438.649 176.132 449.576 178.523 457.934 183.366L457.58 183.977ZM397.863 184.062L398.217 184.673C393.15 187.609 389.709 191.079 387.834 194.705L387.207 194.38L386.58 194.056C388.608 190.133 392.273 186.485 397.509 183.451L397.863 184.062ZM387.207 194.38V195.087H385.422V194.38V193.674H387.207V194.38ZM385.422 194.38H386.128V201.418H385.422H384.716V194.38H385.422ZM385.422 201.418V200.712H385.424V201.418V202.125H385.422V201.418ZM385.424 201.418L386.13 201.419C386.122 207.327 389.995 213.369 398.072 218.049L397.718 218.66L397.364 219.271C389.026 214.44 384.709 208.005 384.718 201.417L385.424 201.418ZM397.718 218.66L398.072 218.049C406.163 222.737 416.83 225.092 427.545 225.077C438.26 225.062 448.948 222.677 457.081 217.965L457.435 218.576L457.789 219.187C449.391 224.052 438.445 226.474 427.547 226.489C416.649 226.505 405.722 224.113 397.364 219.271L397.718 218.66ZM457.435 218.576L457.081 217.965C465.148 213.29 469.075 207.281 469.165 201.408L469.871 201.418L470.577 201.429C470.477 207.972 466.111 214.365 457.789 219.187L457.435 218.576ZM469.871 201.418V200.712H469.875V201.418V202.125H469.871V201.418ZM469.875 201.418H469.169V194.38H469.875H470.581V201.418H469.875ZM469.875 194.38V195.087H468.206V194.38V193.674H469.875V194.38ZM468.206 194.38L467.574 194.696C465.745 191.039 462.318 187.539 457.226 184.588L457.58 183.977L457.934 183.366C463.199 186.416 466.854 190.1 468.838 194.064L468.206 194.38Z" fill="#99F6E4" mask="url(#path-38-inside-11_4467_11615)"/>
<path d="M427.752 170.17C416.991 170.185 406.238 172.562 398.039 177.28C389.837 181.999 385.801 188.126 385.775 194.174C385.75 200.22 389.733 206.334 397.894 211.029C406.052 215.724 416.785 218.072 427.546 218.057C438.307 218.041 449.06 215.664 457.259 210.946C465.46 206.227 469.496 200.1 469.521 194.053C469.547 188.006 465.564 181.893 457.403 177.197C449.245 172.503 438.513 170.155 427.752 170.17Z" fill="#99F6E4" stroke="#99F6E4" stroke-width="0.70625"/>
</g>
<mask id="path-41-inside-12_4467_11615" fill="white">
<path d="M457.58 179.05C441.13 169.519 414.394 169.558 397.863 179.135C392.711 182.119 389.16 185.679 387.208 189.453H385.422V196.491H385.424C385.415 202.739 389.51 208.977 397.718 213.732C414.168 223.263 440.904 223.225 457.435 213.648C465.63 208.9 469.776 202.699 469.871 196.491H469.875V189.453H468.206C466.299 185.642 462.759 182.05 457.58 179.05Z"/>
</mask>
<path d="M457.58 179.05C441.13 169.519 414.394 169.558 397.863 179.135C392.711 182.119 389.16 185.679 387.208 189.453H385.422V196.491H385.424C385.415 202.739 389.51 208.977 397.718 213.732C414.168 223.263 440.904 223.225 457.435 213.648C465.63 208.9 469.776 202.699 469.871 196.491H469.875V189.453H468.206C466.299 185.642 462.759 182.05 457.58 179.05Z" fill="#F0FDFA"/>
<path fill-rule="evenodd" clip-rule="evenodd" d="M457.58 179.05L457.934 178.439L457.934 178.439L457.58 179.05ZM397.863 179.135L397.509 178.524L397.509 178.524L397.863 179.135ZM387.208 189.453L387.835 189.777L387.638 190.159H387.208V189.453ZM385.422 189.453H384.716V188.747H385.422V189.453ZM385.422 196.491V197.197H384.716V196.491H385.422ZM385.424 196.491V195.785H386.131L386.13 196.492L385.424 196.491ZM397.718 213.732L397.364 214.343L397.364 214.343L397.718 213.732ZM457.435 213.648L457.789 214.259H457.789L457.435 213.648ZM469.871 196.491L469.165 196.48L469.176 195.785H469.871V196.491ZM469.875 196.491H470.581V197.197H469.875V196.491ZM469.875 189.453V188.747H470.581V189.453H469.875ZM468.206 189.453V190.159H467.77L467.574 189.769L468.206 189.453ZM457.58 179.05L457.226 179.661C449.134 174.973 438.468 172.618 427.753 172.633C417.038 172.648 406.35 175.034 398.217 179.746L397.863 179.135L397.509 178.524C405.907 173.658 416.853 171.236 427.751 171.22C438.649 171.205 449.576 173.596 457.934 178.439L457.58 179.05ZM397.863 179.135L398.217 179.746C393.15 182.682 389.71 186.152 387.835 189.777L387.208 189.453L386.581 189.129C388.609 185.206 392.273 181.557 397.509 178.524L397.863 179.135ZM387.208 189.453V190.159H385.422V189.453V188.747H387.208V189.453ZM385.422 189.453H386.128V196.491H385.422H384.716V189.453H385.422ZM385.422 196.491V195.785H385.424V196.491V197.197H385.422V196.491ZM385.424 196.491L386.13 196.492C386.122 202.4 389.995 208.441 398.072 213.121L397.718 213.732L397.364 214.343C389.026 209.513 384.709 203.077 384.718 196.49L385.424 196.491ZM397.718 213.732L398.072 213.121C406.164 217.809 416.83 220.164 427.545 220.149C438.26 220.134 448.948 217.749 457.081 213.037L457.435 213.648L457.789 214.259C449.391 219.125 438.445 221.547 427.547 221.562C416.649 221.577 405.722 219.186 397.364 214.343L397.718 213.732ZM457.435 213.648L457.081 213.037C465.148 208.363 469.075 202.353 469.165 196.48L469.871 196.491L470.577 196.502C470.477 203.044 466.111 209.438 457.789 214.259L457.435 213.648ZM469.871 196.491V195.785H469.875V196.491V197.197H469.871V196.491ZM469.875 196.491H469.169V189.453H469.875H470.581V196.491H469.875ZM469.875 189.453V190.159H468.206V189.453V188.747H469.875V189.453ZM468.206 189.453L467.574 189.769C465.745 186.111 462.318 182.611 457.226 179.661L457.58 179.05L457.934 178.439C463.199 181.489 466.854 185.172 468.838 189.137L468.206 189.453Z" fill="#0D9488" mask="url(#path-41-inside-12_4467_11615)"/>
<mask id="path-43-inside-13_4467_11615" fill="white">
<path d="M457.58 171.92C441.13 162.39 414.394 162.428 397.863 172.005C392.711 174.99 389.16 178.55 387.208 182.324H385.422V189.362H385.424C385.415 195.609 389.51 201.848 397.718 206.603C414.168 216.134 440.904 216.096 457.435 206.519C465.63 201.771 469.776 195.57 469.871 189.362H469.875V182.324H468.206C466.299 178.513 462.759 174.921 457.58 171.92Z"/>
</mask>
<path d="M457.58 171.92C441.13 162.39 414.394 162.428 397.863 172.005C392.711 174.99 389.16 178.55 387.208 182.324H385.422V189.362H385.424C385.415 195.609 389.51 201.848 397.718 206.603C414.168 216.134 440.904 216.096 457.435 206.519C465.63 201.771 469.776 195.57 469.871 189.362H469.875V182.324H468.206C466.299 178.513 462.759 174.921 457.58 171.92Z" fill="#F0FDFA"/>
<path fill-rule="evenodd" clip-rule="evenodd" d="M457.58 171.92L457.934 171.309L457.934 171.309L457.58 171.92ZM397.863 172.005L397.509 171.394L397.509 171.394L397.863 172.005ZM387.208 182.324L387.835 182.648L387.638 183.03H387.208V182.324ZM385.422 182.324H384.716V181.617H385.422V182.324ZM385.422 189.362V190.068H384.716V189.362H385.422ZM385.424 189.362V188.656H386.131L386.13 189.363L385.424 189.362ZM397.718 206.603L397.364 207.214L397.364 207.214L397.718 206.603ZM457.435 206.519L457.789 207.13H457.789L457.435 206.519ZM469.871 189.362L469.165 189.351L469.176 188.656H469.871V189.362ZM469.875 189.362H470.581V190.068H469.875V189.362ZM469.875 182.324V181.617H470.581V182.324H469.875ZM468.206 182.324V183.03H467.77L467.574 182.64L468.206 182.324ZM457.58 171.92L457.226 172.531C449.134 167.843 438.468 165.488 427.753 165.504C417.038 165.519 406.35 167.904 398.217 172.616L397.863 172.005L397.509 171.394C405.907 166.529 416.853 164.107 427.751 164.091C438.649 164.076 449.576 166.467 457.934 171.309L457.58 171.92ZM397.863 172.005L398.217 172.616C393.15 175.552 389.71 179.023 387.835 182.648L387.208 182.324L386.581 181.999C388.609 178.076 392.273 174.428 397.509 171.394L397.863 172.005ZM387.208 182.324V183.03H385.422V182.324V181.617H387.208V182.324ZM385.422 182.324H386.128V189.362H385.422H384.716V182.324H385.422ZM385.422 189.362V188.656H385.424V189.362V190.068H385.422V189.362ZM385.424 189.362L386.13 189.363C386.122 195.27 389.995 201.312 398.072 205.992L397.718 206.603L397.364 207.214C389.026 202.384 384.709 195.948 384.718 189.361L385.424 189.362ZM397.718 206.603L398.072 205.992C406.164 210.68 416.83 213.035 427.545 213.02C438.26 213.005 448.948 210.62 457.081 205.908L457.435 206.519L457.789 207.13C449.391 211.995 438.445 214.417 427.547 214.433C416.649 214.448 405.722 212.057 397.364 207.214L397.718 206.603ZM457.435 206.519L457.081 205.908C465.148 201.234 469.075 195.224 469.165 189.351L469.871 189.362L470.577 189.373C470.477 195.915 466.111 202.308 457.789 207.13L457.435 206.519ZM469.871 189.362V188.656H469.875V189.362V190.068H469.871V189.362ZM469.875 189.362H469.169V182.324H469.875H470.581V189.362H469.875ZM469.875 182.324V183.03H468.206V182.324V181.617H469.875V182.324ZM468.206 182.324L467.574 182.64C465.745 178.982 462.318 175.482 457.226 172.531L457.58 171.92L457.934 171.309C463.199 174.36 466.854 178.043 468.838 182.008L468.206 182.324Z" fill="#0D9488" mask="url(#path-43-inside-13_4467_11615)"/>
<mask id="path-45-inside-14_4467_11615" fill="white">
<path d="M457.58 164.791C441.13 155.26 414.394 155.299 397.863 164.876C392.711 167.861 389.16 171.42 387.208 175.194H385.422V182.233H385.424C385.415 188.48 389.51 194.719 397.718 199.474C414.168 209.004 440.904 208.967 457.435 199.39C465.63 194.642 469.776 188.44 469.871 182.233H469.875V175.194H468.206C466.299 171.383 462.759 167.791 457.58 164.791Z"/>
</mask>
<path d="M457.58 164.791C441.13 155.26 414.394 155.299 397.863 164.876C392.711 167.861 389.16 171.42 387.208 175.194H385.422V182.233H385.424C385.415 188.48 389.51 194.719 397.718 199.474C414.168 209.004 440.904 208.967 457.435 199.39C465.63 194.642 469.776 188.44 469.871 182.233H469.875V175.194H468.206C466.299 171.383 462.759 167.791 457.58 164.791Z" fill="#F0FDFA"/>
<path fill-rule="evenodd" clip-rule="evenodd" d="M457.58 164.791L457.934 164.18L457.934 164.18L457.58 164.791ZM397.863 164.876L397.509 164.265L397.509 164.265L397.863 164.876ZM387.208 175.194L387.835 175.519L387.638 175.901H387.208V175.194ZM385.422 175.194H384.716V174.488H385.422V175.194ZM385.422 182.233V182.939H384.716V182.233H385.422ZM385.424 182.233V181.526H386.131L386.13 182.233L385.424 182.233ZM397.718 199.474L397.364 200.085L397.364 200.085L397.718 199.474ZM457.435 199.39L457.789 200.001H457.789L457.435 199.39ZM469.871 182.233L469.165 182.222L469.176 181.526H469.871V182.233ZM469.875 182.233H470.581V182.939H469.875V182.233ZM469.875 175.194V174.488H470.581V175.194H469.875ZM468.206 175.194V175.901H467.77L467.574 175.51L468.206 175.194ZM457.58 164.791L457.226 165.402C449.134 160.714 438.468 158.359 427.753 158.374C417.038 158.39 406.35 160.775 398.217 165.487L397.863 164.876L397.509 164.265C405.907 159.4 416.853 156.977 427.751 156.962C438.649 156.946 449.576 159.337 457.934 164.18L457.58 164.791ZM397.863 164.876L398.217 165.487C393.15 168.423 389.71 171.894 387.835 175.519L387.208 175.194L386.581 174.87C388.609 170.947 392.273 167.299 397.509 164.265L397.863 164.876ZM387.208 175.194V175.901H385.422V175.194V174.488H387.208V175.194ZM385.422 175.194H386.128V182.233H385.422H384.716V175.194H385.422ZM385.422 182.233V181.526H385.424V182.233V182.939H385.422V182.233ZM385.424 182.233L386.13 182.233C386.122 188.141 389.995 194.183 398.072 198.863L397.718 199.474L397.364 200.085C389.026 195.254 384.709 188.819 384.718 182.232L385.424 182.233ZM397.718 199.474L398.072 198.863C406.164 203.551 416.83 205.906 427.545 205.891C438.26 205.876 448.948 203.491 457.081 198.779L457.435 199.39L457.789 200.001C449.391 204.866 438.445 207.288 427.547 207.303C416.649 207.319 405.722 204.927 397.364 200.085L397.718 199.474ZM457.435 199.39L457.081 198.779C465.148 194.104 469.075 188.095 469.165 182.222L469.871 182.233L470.577 182.243C470.477 188.786 466.111 195.179 457.789 200.001L457.435 199.39ZM469.871 182.233V181.526H469.875V182.233V182.939H469.871V182.233ZM469.875 182.233H469.169V175.194H469.875H470.581V182.233H469.875ZM469.875 175.194V175.901H468.206V175.194V174.488H469.875V175.194ZM468.206 175.194L467.574 175.51C465.745 171.853 462.318 168.353 457.226 165.402L457.58 164.791L457.934 164.18C463.199 167.23 466.854 170.914 468.838 174.878L468.206 175.194Z" fill="#0D9488" mask="url(#path-45-inside-14_4467_11615)"/>
<mask id="path-47-inside-15_4467_11615" fill="white">
<path d="M457.58 124.698C441.13 115.167 414.394 115.206 397.863 124.783C387.804 130.611 383.843 138.628 385.989 146.16C385.236 148.81 385.235 151.514 385.989 154.16C385.236 156.81 385.235 159.514 385.989 162.16C385.431 164.126 385.287 166.121 385.558 168.101H385.422V175.139H385.458C385.865 181.049 389.948 186.879 397.718 191.381C414.168 200.911 440.904 200.874 457.435 191.297C465.189 186.804 469.32 181.009 469.822 175.139H469.875V168.101H469.705C470.022 166.04 469.891 163.962 469.309 161.919C470.061 159.269 470.063 156.564 469.309 153.919C470.061 151.269 470.063 148.564 469.309 145.919C471.44 138.417 467.536 130.466 457.58 124.698Z"/>
</mask>
<path d="M457.58 124.698C441.13 115.167 414.394 115.206 397.863 124.783C387.804 130.611 383.843 138.628 385.989 146.16C385.236 148.81 385.235 151.514 385.989 154.16C385.236 156.81 385.235 159.514 385.989 162.16C385.431 164.126 385.287 166.121 385.558 168.101H385.422V175.139H385.458C385.865 181.049 389.948 186.879 397.718 191.381C414.168 200.911 440.904 200.874 457.435 191.297C465.189 186.804 469.32 181.009 469.822 175.139H469.875V168.101H469.705C470.022 166.04 469.891 163.962 469.309 161.919C470.061 159.269 470.063 156.564 469.309 153.919C470.061 151.269 470.063 148.564 469.309 145.919C471.44 138.417 467.536 130.466 457.58 124.698Z" fill="#F0FDFA"/>
<path fill-rule="evenodd" clip-rule="evenodd" d="M457.58 124.698L457.934 124.087L457.934 124.087L457.58 124.698ZM397.863 124.783L397.509 124.172V124.172L397.863 124.783ZM385.989 146.16L386.668 145.966L386.724 146.16L386.669 146.353L385.989 146.16ZM385.989 154.16L386.668 153.966L386.724 154.16L386.669 154.353L385.989 154.16ZM385.989 162.16L386.668 161.966L386.724 162.16L386.669 162.353L385.989 162.16ZM385.558 168.101L386.257 168.006L386.367 168.808H385.558V168.101ZM385.422 168.101H384.716V167.395H385.422V168.101ZM385.422 175.139V175.846H384.716V175.139H385.422ZM385.458 175.139V174.433H386.117L386.163 175.091L385.458 175.139ZM397.718 191.381L397.364 191.992H397.364L397.718 191.381ZM457.435 191.297L457.789 191.908H457.789L457.435 191.297ZM469.822 175.139L469.119 175.079L469.174 174.433H469.822V175.139ZM469.875 175.139H470.581V175.846H469.875V175.139ZM469.875 168.101V167.395H470.581V168.101H469.875ZM469.705 168.101V168.808H468.882L469.007 167.994L469.705 168.101ZM469.309 161.919L468.629 162.112L468.574 161.919L468.629 161.726L469.309 161.919ZM469.309 153.919L468.629 154.112L468.574 153.919L468.629 153.726L469.309 153.919ZM469.309 145.919L468.629 146.112L468.574 145.919L468.629 145.726L469.309 145.919ZM457.58 124.698L457.226 125.309C449.134 120.621 438.468 118.266 427.753 118.281C417.038 118.297 406.35 120.682 398.217 125.394L397.863 124.783L397.509 124.172C405.907 119.307 416.853 116.884 427.751 116.869C438.649 116.853 449.576 119.244 457.934 124.087L457.58 124.698ZM397.863 124.783L398.217 125.394C388.316 131.13 384.644 138.863 386.668 145.966L385.989 146.16L385.31 146.353C383.041 138.393 387.292 130.092 397.509 124.172L397.863 124.783ZM385.989 146.16L386.669 146.353C385.951 148.877 385.951 151.447 386.668 153.966L385.989 154.16L385.31 154.353C384.52 151.581 384.521 148.742 385.31 145.967L385.989 146.16ZM385.989 154.16L386.669 154.353C385.951 156.877 385.951 159.447 386.668 161.966L385.989 162.16L385.31 162.353C384.52 159.581 384.521 156.742 385.31 153.967L385.989 154.16ZM385.989 162.16L386.669 162.353C386.136 164.227 386 166.124 386.257 168.006L385.558 168.101L384.858 168.197C384.574 166.118 384.725 164.025 385.31 161.967L385.989 162.16ZM385.558 168.101V168.808H385.422V168.101V167.395H385.558V168.101ZM385.422 168.101H386.128V175.139H385.422H384.716V168.101H385.422ZM385.422 175.139V174.433H385.458V175.139V175.846H385.422V175.139ZM385.458 175.139L386.163 175.091C386.548 180.687 390.426 186.34 398.072 190.769L397.718 191.381L397.364 191.992C389.471 187.419 385.182 181.41 384.753 175.188L385.458 175.139ZM397.718 191.381L398.072 190.769C406.164 195.457 416.83 197.813 427.545 197.798C438.26 197.783 448.948 195.397 457.081 190.686L457.435 191.297L457.789 191.908C449.391 196.773 438.445 199.195 427.547 199.21C416.649 199.226 405.722 196.834 397.364 191.992L397.718 191.381ZM457.435 191.297L457.081 190.686C464.715 186.263 468.643 180.642 469.119 175.079L469.822 175.139L470.526 175.2C469.997 181.377 465.664 187.345 457.789 191.908L457.435 191.297ZM469.822 175.139V174.433H469.875V175.139V175.846H469.822V175.139ZM469.875 175.139H469.169V168.101H469.875H470.581V175.139H469.875ZM469.875 168.101V168.808H469.705V168.101V167.395H469.875V168.101ZM469.705 168.101L469.007 167.994C469.308 166.034 469.184 164.059 468.629 162.112L469.309 161.919L469.988 161.725C470.598 163.865 470.735 166.046 470.403 168.208L469.705 168.101ZM469.309 161.919L468.629 161.726C469.346 159.202 469.347 156.631 468.629 154.112L469.309 153.919L469.988 153.725C470.778 156.498 470.777 159.336 469.988 162.112L469.309 161.919ZM469.309 153.919L468.629 153.726C469.346 151.202 469.347 148.631 468.629 146.112L469.309 145.919L469.988 145.725C470.778 148.498 470.777 151.336 469.988 154.112L469.309 153.919ZM469.309 145.919L468.629 145.726C470.64 138.649 467.021 130.984 457.226 125.309L457.58 124.698L457.934 124.087C468.051 129.948 472.24 138.184 469.988 146.112L469.309 145.919Z" fill="#0D9488" mask="url(#path-47-inside-15_4467_11615)"/>
<path d="M427.752 142.891C416.991 142.906 406.238 145.284 398.039 150.001C389.837 154.721 385.801 160.848 385.775 166.895C385.75 172.941 389.733 179.055 397.894 183.75C406.052 188.445 416.785 190.793 427.546 190.778C438.307 190.763 449.06 188.385 457.259 183.667C465.46 178.948 469.496 172.821 469.521 166.774C469.547 160.727 465.564 154.614 457.403 149.918C449.245 145.224 438.513 142.876 427.752 142.891Z" fill="#F0FDFA" stroke="#0D9488" stroke-width="0.70625"/>
<path d="M427.752 134.891C416.991 134.906 406.238 137.284 398.039 142.001C389.837 146.721 385.801 152.848 385.775 158.895C385.75 164.941 389.733 171.055 397.894 175.75C406.052 180.445 416.785 182.793 427.546 182.778C438.307 182.763 449.06 180.385 457.259 175.667C465.46 170.948 469.496 164.821 469.521 158.774C469.547 152.727 465.564 146.614 457.403 141.918C449.245 137.224 438.513 134.876 427.752 134.891Z" fill="#F0FDFA" stroke="#0D9488" stroke-width="0.70625"/>
<path d="M427.752 126.891C416.991 126.906 406.238 129.284 398.039 134.001C389.837 138.721 385.801 144.848 385.775 150.895C385.75 156.941 389.733 163.055 397.894 167.75C406.052 172.445 416.785 174.793 427.546 174.778C438.307 174.763 449.06 172.385 457.259 167.667C465.46 162.948 469.496 156.821 469.521 150.774C469.547 144.727 465.564 138.614 457.403 133.918C449.245 129.224 438.513 126.876 427.752 126.891Z" fill="#F0FDFA" stroke="#0D9488" stroke-width="0.70625"/>
<path d="M427.752 118.891C416.991 118.906 406.238 121.284 398.039 126.001C389.837 130.721 385.801 136.848 385.775 142.895C385.75 148.941 389.733 155.055 397.894 159.75C406.052 164.445 416.785 166.793 427.546 166.778C438.307 166.763 449.06 164.385 457.259 159.667C465.46 154.948 469.496 148.821 469.521 142.774C469.547 136.727 465.564 130.614 457.403 125.918C449.245 121.224 438.513 118.876 427.752 118.891Z" fill="#F0FDFA" stroke="#0D9488" stroke-width="0.70625"/>
<path d="M427.752 110.891C416.991 110.906 406.238 113.284 398.039 118.001C389.837 122.721 385.801 128.848 385.775 134.895C385.75 140.941 389.733 147.055 397.894 151.75C406.052 156.445 416.785 158.793 427.546 158.778C438.307 158.763 449.06 156.385 457.259 151.667C465.46 146.948 469.496 140.821 469.521 134.774C469.547 128.727 465.564 122.614 457.403 117.918C449.245 113.224 438.513 110.876 427.752 110.891Z" fill="#CCFBF1" stroke="#0D9488" stroke-width="0.70625"/>
<g filter="url(#filter3_dddddd_4467_11615)">
<rect x="402.436" y="85.4363" width="52.2138" height="52.2138" rx="11.1977" fill="#CCFBF1" stroke="#0D9488" stroke-width="0.872546"/>
<path d="M422.875 102.125C422.875 104.859 424.953 107.156 427.688 107.375H428.125C428.398 107.43 428.562 107.648 428.562 107.867C428.508 108.086 428.289 108.305 428.07 108.25H427.633C424.461 107.977 422 105.352 422 102.125C422 100.867 422.383 99.6641 423.039 98.7344C418.008 99.2812 414.125 103.547 414.125 108.688V110.438C414.125 112.023 413.633 113.609 413.195 114.812C412.977 115.414 412.758 115.906 412.594 116.234C412.484 116.398 412.43 116.562 412.375 116.672C412.375 116.727 412.32 116.727 412.32 116.781C412.32 116.781 412.32 116.781 411.938 116.562L412.32 116.781C412.156 117 411.938 117.109 411.719 116.945C411.5 116.836 411.391 116.562 411.555 116.344C411.555 116.344 411.555 116.289 411.609 116.234C411.664 116.18 411.719 116.016 411.773 115.852C411.938 115.523 412.156 115.031 412.375 114.484C412.812 113.336 413.25 111.859 413.25 110.438V108.688C413.25 102.781 417.953 97.9688 423.805 97.8047C424.898 96.7109 426.43 96 428.07 96C429.766 96 431.242 96.7109 432.391 97.75H432.938C437.477 97.75 441.25 101.523 441.25 106.062V113.938C441.25 114.211 441.031 114.375 440.812 114.375C440.539 114.375 440.375 114.211 440.375 113.938V106.062C440.375 102.07 437.148 98.7344 433.102 98.6797C433.703 99.5 434.086 100.539 434.195 101.688L434.25 102.125C434.25 102.344 434.086 102.562 433.812 102.562C433.594 102.617 433.375 102.398 433.375 102.18L433.32 101.742C433.102 99.0078 430.805 96.875 428.07 96.875C425.172 96.875 422.875 99.2266 422.875 102.125ZM434.25 112.625V113.227C435.344 114.977 437.258 116.125 439.5 116.125C441.195 116.125 442.781 115.414 443.93 114.266C444.094 114.102 444.367 114.102 444.531 114.266C444.695 114.43 444.695 114.703 444.531 114.922C443.656 115.797 442.508 116.508 441.25 116.781V117.82C441.25 118.367 441.633 118.75 442.18 118.75C442.562 118.75 442.891 118.586 443.055 118.258L443.164 117.984C443.602 117.109 444.641 116.781 445.516 117.219C446.391 117.656 446.719 118.695 446.281 119.57L446.172 119.789C445.406 121.32 443.875 122.25 442.18 122.25C439.719 122.25 437.75 120.281 437.75 117.82V116.781C436.328 116.453 435.125 115.688 434.25 114.703V121.812C434.25 123.07 433.266 124 432.062 124H429.438C428.18 124 427.25 123.07 427.25 121.812V118.203C426.43 118.586 425.555 118.75 424.625 118.75C423.641 118.75 422.766 118.586 422 118.203V121.812C422 123.07 421.016 124 419.812 124H417.188C415.93 124 415 123.07 415 121.812V114.375C415 114.156 415.164 113.938 415.438 113.938C415.656 113.938 415.875 114.156 415.875 114.375V121.812C415.875 122.578 416.422 123.125 417.188 123.125H419.812C420.523 123.125 421.125 122.578 421.125 121.812V117.766C421.016 117.711 420.961 117.656 420.852 117.602C420.633 117.438 420.633 117.164 420.742 117C420.906 116.781 421.18 116.727 421.344 116.891C422.273 117.547 423.367 117.875 424.625 117.875C425.828 117.875 426.922 117.547 427.852 116.891C428.07 116.727 428.344 116.781 428.453 117C428.617 117.164 428.562 117.438 428.344 117.602C428.289 117.656 428.18 117.711 428.125 117.766V121.812C428.125 122.578 428.672 123.125 429.438 123.125H432.062C432.773 123.125 433.375 122.578 433.375 121.812V112.625C433.375 112.406 433.539 112.188 433.812 112.188C434.031 112.188 434.25 112.406 434.25 112.625ZM440.375 116.945C440.047 117 439.773 117 439.5 117C439.172 117 438.898 117 438.625 116.945V117.82C438.625 119.789 440.211 121.375 442.18 121.375C443.547 121.375 444.75 120.609 445.406 119.406L445.516 119.133C445.734 118.75 445.57 118.203 445.133 117.984C444.695 117.766 444.148 117.93 443.93 118.367L443.82 118.641C443.492 119.242 442.891 119.625 442.18 119.625C441.195 119.625 440.375 118.805 440.375 117.82V116.945ZM437.75 107.375C437.75 107.867 437.312 108.25 436.875 108.25C436.383 108.25 436 107.867 436 107.375C436 106.938 436.383 106.5 436.875 106.5C437.312 106.5 437.75 106.938 437.75 107.375Z" fill="#0F766E"/>
</g>
<defs>
<filter id="filter0_d_4467_11615" x="36.2969" y="169.816" width="112.703" height="84.2168" filterUnits="userSpaceOnUse" color-interpolation-filters="sRGB">
<feFlood flood-opacity="0" result="BackgroundImageFix"/>
<feColorMatrix in="SourceAlpha" type="matrix" values="0 0 0 0 0 0 0 0 0 0 0 0 0 0 0 0 0 0 127 0" result="hardAlpha"/>
<feMorphology radius="7.0625" operator="erode" in="SourceAlpha" result="effect1_dropShadow_4467_11615"/>
<feOffset dy="14.125"/>
<feGaussianBlur stdDeviation="10.5938"/>
<feColorMatrix type="matrix" values="0 0 0 0 0.768627 0 0 0 0 0.992157 0 0 0 0 0.980392 0 0 0 0.1 0"/>
<feBlend mode="normal" in2="BackgroundImageFix" result="effect1_dropShadow_4467_11615"/>
<feBlend mode="normal" in="SourceGraphic" in2="effect1_dropShadow_4467_11615" result="shape"/>
</filter>
<filter id="filter1_d_4467_11615" x="196.297" y="169.816" width="112.703" height="84.2168" filterUnits="userSpaceOnUse" color-interpolation-filters="sRGB">
<feFlood flood-opacity="0" result="BackgroundImageFix"/>
<feColorMatrix in="SourceAlpha" type="matrix" values="0 0 0 0 0 0 0 0 0 0 0 0 0 0 0 0 0 0 127 0" result="hardAlpha"/>
<feMorphology radius="7.0625" operator="erode" in="SourceAlpha" result="effect1_dropShadow_4467_11615"/>
<feOffset dy="14.125"/>
<feGaussianBlur stdDeviation="10.5938"/>
<feColorMatrix type="matrix" values="0 0 0 0 0.768627 0 0 0 0 0.992157 0 0 0 0 0.980392 0 0 0 0.1 0"/>
<feBlend mode="normal" in2="BackgroundImageFix" result="effect1_dropShadow_4467_11615"/>
<feBlend mode="normal" in="SourceGraphic" in2="effect1_dropShadow_4467_11615" result="shape"/>
</filter>
<filter id="filter2_d_4467_11615" x="371.297" y="169.816" width="112.703" height="84.2168" filterUnits="userSpaceOnUse" color-interpolation-filters="sRGB">
<feFlood flood-opacity="0" result="BackgroundImageFix"/>
<feColorMatrix in="SourceAlpha" type="matrix" values="0 0 0 0 0 0 0 0 0 0 0 0 0 0 0 0 0 0 127 0" result="hardAlpha"/>
<feMorphology radius="7.0625" operator="erode" in="SourceAlpha" result="effect1_dropShadow_4467_11615"/>
<feOffset dy="14.125"/>
<feGaussianBlur stdDeviation="10.5938"/>
<feColorMatrix type="matrix" values="0 0 0 0 0.768627 0 0 0 0 0.992157 0 0 0 0 0.980392 0 0 0 0.1 0"/>
<feBlend mode="normal" in2="BackgroundImageFix" result="effect1_dropShadow_4467_11615"/>
<feBlend mode="normal" in="SourceGraphic" in2="effect1_dropShadow_4467_11615" result="shape"/>
</filter>
<filter id="filter3_dddddd_4467_11615" x="369.945" y="59.1492" width="117.196" height="117.196" filterUnits="userSpaceOnUse" color-interpolation-filters="sRGB">
<feFlood flood-opacity="0" result="BackgroundImageFix"/>
<feColorMatrix in="SourceAlpha" type="matrix" values="0 0 0 0 0 0 0 0 0 0 0 0 0 0 0 0 0 0 127 0" result="hardAlpha"/>
<feOffset dy="0.171686"/>
<feGaussianBlur stdDeviation="0.443523"/>
<feColorMatrix type="matrix" values="0 0 0 0 0.0509804 0 0 0 0 0.580392 0 0 0 0 0.533333 0 0 0 0.0759093 0"/>
<feBlend mode="normal" in2="BackgroundImageFix" result="effect1_dropShadow_4467_11615"/>
<feColorMatrix in="SourceAlpha" type="matrix" values="0 0 0 0 0 0 0 0 0 0 0 0 0 0 0 0 0 0 127 0" result="hardAlpha"/>
<feOffset dy="0.412586"/>
<feGaussianBlur stdDeviation="1.06585"/>
<feColorMatrix type="matrix" values="0 0 0 0 0.0509804 0 0 0 0 0.580392 0 0 0 0 0.533333 0 0 0 0.109051 0"/>
<feBlend mode="normal" in2="effect1_dropShadow_4467_11615" result="effect2_dropShadow_4467_11615"/>
<feColorMatrix in="SourceAlpha" type="matrix" values="0 0 0 0 0 0 0 0 0 0 0 0 0 0 0 0 0 0 127 0" result="hardAlpha"/>
<feOffset dy="0.776862"/>
<feGaussianBlur stdDeviation="2.00689"/>
<feColorMatrix type="matrix" values="0 0 0 0 0.0509804 0 0 0 0 0.580392 0 0 0 0 0.533333 0 0 0 0.135 0"/>
<feBlend mode="normal" in2="effect2_dropShadow_4467_11615" result="effect3_dropShadow_4467_11615"/>
<feColorMatrix in="SourceAlpha" type="matrix" values="0 0 0 0 0 0 0 0 0 0 0 0 0 0 0 0 0 0 127 0" result="hardAlpha"/>
<feOffset dy="1.38579"/>
<feGaussianBlur stdDeviation="3.57996"/>
<feColorMatrix type="matrix" values="0 0 0 0 0.0509804 0 0 0 0 0.580392 0 0 0 0 0.533333 0 0 0 0.160949 0"/>
<feBlend mode="normal" in2="effect3_dropShadow_4467_11615" result="effect4_dropShadow_4467_11615"/>
<feColorMatrix in="SourceAlpha" type="matrix" values="0 0 0 0 0 0 0 0 0 0 0 0 0 0 0 0 0 0 127 0" result="hardAlpha"/>
<feOffset dy="2.59197"/>
<feGaussianBlur stdDeviation="6.69591"/>
<feColorMatrix type="matrix" values="0 0 0 0 0.0509804 0 0 0 0 0.580392 0 0 0 0 0.533333 0 0 0 0.194091 0"/>
<feBlend mode="normal" in2="effect4_dropShadow_4467_11615" result="effect5_dropShadow_4467_11615"/>
<feColorMatrix in="SourceAlpha" type="matrix" values="0 0 0 0 0 0 0 0 0 0 0 0 0 0 0 0 0 0 127 0" result="hardAlpha"/>
<feOffset dy="6.2042"/>
<feGaussianBlur stdDeviation="16.0275"/>
<feColorMatrix type="matrix" values="0 0 0 0 0.0509804 0 0 0 0 0.580392 0 0 0 0 0.533333 0 0 0 0.32 0"/>
<feBlend mode="normal" in2="effect5_dropShadow_4467_11615" result="effect6_dropShadow_4467_11615"/>
<feBlend mode="normal" in="SourceGraphic" in2="effect6_dropShadow_4467_11615" result="shape"/>
</filter>
<linearGradient id="paint0_linear_4467_11615" x1="93.5" y1="116.226" x2="93.5" y2="354.617" gradientUnits="userSpaceOnUse">
<stop stop-color="#3F827D" stop-opacity="0"/>
<stop offset="1" stop-color="#71E8DF"/>
</linearGradient>
<linearGradient id="paint1_linear_4467_11615" x1="253.5" y1="116.226" x2="253.5" y2="354.617" gradientUnits="userSpaceOnUse">
<stop stop-color="#3F827D" stop-opacity="0"/>
<stop offset="1" stop-color="#71E8DF"/>
</linearGradient>
<linearGradient id="paint2_linear_4467_11615" x1="428.5" y1="116.226" x2="428.5" y2="354.617" gradientUnits="userSpaceOnUse">
<stop stop-color="#3F827D" stop-opacity="0"/>
<stop offset="1" stop-color="#71E8DF"/>
</linearGradient>
</defs>
</svg>
